<?xml version="1.0" encoding="utf-8"?>
<svg id="master-artboard" viewBox="0 0 1400 980" version="1.1" xmlns="http://www.w3.org/2000/svg" x="0px" y="0px" width="1400px" height="980px" enable-background="new 0 0 1400 980"><rect id="ee-background" x="0" y="0" width="1400" height="980" style="fill: white; fill-opacity: 0; pointer-events: none;"/>
<linearGradient id="SVGID_1_" gradientUnits="userSpaceOnUse" x1="700" y1="-2.9998" x2="700" y2="899.1088">
		<stop offset="0" style="stop-color:#97D6E4"/>
		<stop offset="0.2075" style="stop-color:#70A2C4"/>
		<stop offset="0.4866" style="stop-color:#4871A4"/>
		<stop offset="0.7214" style="stop-color:#2C5490"/>
		<stop offset="0.8994" style="stop-color:#194486"/>
		<stop offset="1" style="stop-color:#133D82"/>
	</linearGradient><path d="M 0 0 H 1400 V 980 H 0 V 0 Z" fill="url(#SVGID_1_)" transform="matrix(1, 0, 0, 1, 0, 0)"/><linearGradient id="SVGID_2_" gradientUnits="userSpaceOnUse" x1="700" y1="670.9985" x2="700" y2="897.8975">
		<stop offset="0.3426" style="stop-color:#254066"/>
		<stop offset="0.4437" style="stop-color:#244069"/>
		<stop offset="0.5999" style="stop-color:#203F70"/>
		<stop offset="0.7908" style="stop-color:#193E7B"/>
		<stop offset="0.8927" style="stop-color:#133D82"/>
	</linearGradient><path fill="url(#SVGID_2_)" d="M1400,745.7c-20.2,5.7-37.4,22.3-54.4,35.9c-21.2,17.1-52.7,30.5-74.1,13.6l-46.5,34.6&#10;&#9;&#9;c-54.4-1.2-108.9-2.3-163.3-3.5c-16.1-0.3-33-0.9-46.8-9.1c-15.7-9.3-24.7-26.5-32.8-42.9c-8.7-17.5-17.4-35-26-52.5&#10;&#9;&#9;c-5.2-10.5-10.5-21.4-10.5-33.1c0-24.3,23.2-42.7,46.5-49.5c23.3-6.7,48.3-5.7,71.8-12.1c9.2-2.5,20-9.3,18-18.6&#10;&#9;&#9;c-66.9,2.9-133.7,5.9-200.6,8.8c-1.8,11.9,17.4,12.2,27.5,18.9c11.1,7.4,9.9,23.9,7.5,37c-5.2,27.9-10.4,55.8-15.6,83.7&#10;&#9;&#9;c-1.1,5.9-2.3,12-5.7,17c-3.7,5.3-9.5,8.6-15.2,11.6c-57.9,30.4-123.4,46.4-188.9,46.1c-17.4-0.1-41.6-13.8-31.3-27.8&#10;&#9;&#9;c7.2-1.3,14.5-2.5,21.7-3.8c5.3-0.9,5.2-8.6-0.1-9.4c-61.5-9.1-121.5-27.5-177.6-54.3c-3.3-1.6-3.7-6.2-0.6-8.2&#10;&#9;&#9;c6.4-4.4,12.8-8.7,19.1-13.1c3.2-2.2,2.6-7.1-1.1-8.4c-4.9-1.7-9.8-3.5-14.7-5.2c-4.2-1.5-4.2-7.4,0-9c9.4-3.4,18.8-6.8,28.3-10.2&#10;&#9;&#9;c4.9-1.8,3.8-9-1.4-9.2c-27.8-1.2-55.6-4.6-82.9-10.4c-8.8-1.9-16.7,5.7-15.2,14.5c5.7,34-0.3,70.6-24.2,94.7&#10;&#9;&#9;c-7.5,7.6-16.6,13.6-26.4,17.9c-44.4,19.4-102.6-4.8-120.2-50c-25.1,4.2-44.9-20.1-58.2-41.8c-9-14.5-18-29.8-19.1-46.8&#10;&#9;&#9;c-1.1-17,8.5-36,25.1-39.6c-49.8,0.5-93-16-125.6-53.7c-28.5-33-53.1,21.5-86.3-6.3V932h1400V745.7z" transform="matrix(1, 0, 0, 1, 0, 0)"/><path fill="#1A3051" d="M1400,464.6c-10.3,2.1-20.7,3-31.3,3.2c-0.2-0.3-0.4-0.5-0.7-0.7c-1.4-1.4-3.3-2.3-5.1-3&#10;&#9;&#9;c-5.4-2.2-11.1-3.5-16.9-3.9c-3.8-0.3-7.6-0.2-11.5,0c-2.9,0.2-6.9-0.3-9.7,0.8c-2.3,0.9-3.3,2.5-3.5,4.3&#10;&#9;&#9;c-4.3-0.4-8.5-0.8-12.8-1.2c0.3-0.4,0.5-0.7,0.7-1.1c1.6-0.9,3-2.1,4.8-2.7c2.1-0.7,4.3-0.2,6.4-0.9c1.3-0.4,0.7-2.5-0.6-2&#10;&#9;&#9;c-1.1,0.4-2.1,0.3-3.3,0.4c0.3-0.2,0.7-0.3,1-0.5c0.1,0,0.1,0,0.2-0.1c0,0,0.1,0,0.1-0.1c0.4-0.2,0.9-0.3,1.3-0.5&#10;&#9;&#9;c2.6-0.6,5.5,0.3,8.1-0.3c0.8-0.2,0.4-1.4-0.3-1.2c-0.8,0.2-1.5,0.3-2.3,0.3c0.1-0.1,0.3-0.1,0.4-0.2c0.8-0.2,1.7-0.6,2.4-1&#10;&#9;&#9;c0.2-0.1,0.4-0.2,0.6-0.4c1.2-0.4,2.3-0.5,3.7-0.3c0.7,0.1,0.9-0.9,0.3-1c-0.8-0.1-1.5-0.2-2.3-0.2c0.7-0.7,1.3-1.5,1.7-2.4&#10;&#9;&#9;c0.5-1-1-1.9-1.5-0.9c-0.5,1-1.2,1.8-2,2.6c0.1-0.2,0.1-0.3,0.2-0.5c0.3-0.6-0.5-1.2-0.9-0.8c0.2-0.1,0.3-0.3,0.5-0.4&#10;&#9;&#9;c0.6-0.5,0-1.5-0.6-1.1c-0.4,0.3-0.8,0.6-1.1,1c0-0.2,0.1-0.3,0.1-0.5c0.1-0.7-0.9-0.9-1-0.3c-0.1,0.3-0.1,0.5-0.2,0.8&#10;&#9;&#9;c-0.2-0.1-0.4-0.1-0.6,0.1c-1.3,1.7-2.9,2.9-4.9,3.8c-1.2,0.5-2.1,1.2-3,2c-0.7,0.3-1.4,0.7-2.1,1.2c-1,0.6-1.9,1.3-2.9,1.9&#10;&#9;&#9;c0.4-0.4,0.8-0.7,1.3-1.1c1.4-1,2.8-2,4.1-3.1c0.9-0.7,1.8-1.5,2.7-2.4c0,0,0.1-0.1,0.1-0.1c0,0,0,0,0.1-0.1&#10;&#9;&#9;c0.4-0.2,0.8-0.4,1.2-0.6c0.9-0.5,1.9-0.9,2.9-1.3c0.6-0.3,0.1-1.2-0.5-0.9c-0.6,0.3-1.3,0.5-1.9,0.8c0.1-0.1,0.2-0.2,0.2-0.4&#10;&#9;&#9;c0.1,0,0.3-0.1,0.3-0.2c0.5-0.8,1.2-1.5,2-2c0.6-0.4,0-1.3-0.5-0.9c-0.3,0.2-0.5,0.4-0.8,0.6c0,0,0,0,0,0c0.1-0.8-1-1.1-1.2-0.3&#10;&#9;&#9;c-0.2,0.9-0.5,1.8-1,2.6c0-0.3,0-0.7,0-1c-0.1-0.8-1.3-0.8-1.2,0c0.1,1,0,2-0.4,3c0,0-0.1,0.1-0.1,0.1c-0.4,0.2-0.7,0.5-1,0.8&#10;&#9;&#9;c-0.1,0.1-0.1,0.2-0.1,0.3c-0.7,0.6-1.4,1.2-2.1,1.7c-0.7,0.5-1.4,1-2.1,1.5c0.5-0.7,0.9-1.5,1.4-2.3c0.8-0.3,1.5-0.5,2.3-0.8&#10;&#9;&#9;c0.6-0.2,0.4-1.2-0.3-1c-0.6,0.2-1.1,0.3-1.7,0.5c-0.2-0.3-0.7-0.3-0.9,0c-0.1,0.1-0.1,0.2-0.2,0.4c-1,0.4-1.9,0.9-2.8,1.5l0,0&#10;&#9;&#9;c0,0,0,0,0,0c0.9-1.2,2.1-1.7,3.4-2.4c2.1-1.2,3.9-2.9,5.2-5c0.4-0.6-0.5-1.1-0.9-0.5c-0.7,1.2-1.6,2.2-2.7,3.1&#10;&#9;&#9;c-0.8,0.7-1.8,1.2-2.7,1.8c-0.1-0.2-0.3-0.2-0.5-0.2c-0.6,0.2-1.2,0.5-1.7,0.9c1.2-2.2,3.4-3.9,5.4-5.4c0.8-0.6,0-2-0.8-1.4&#10;&#9;&#9;c-1,0.8-2,1.5-2.9,2.4c0.1-0.6,0.3-1.1,0.4-1.7c0.9-1,1.8-1.9,2.7-2.8c0.8-0.7-0.4-1.8-1.1-1.1c-0.5,0.4-0.9,0.9-1.4,1.3&#10;&#9;&#9;c0-1-0.1-2-0.2-3.1c-0.2-1.1-1.8-0.7-1.7,0.4c-0.4-0.6-1.4,0-1,0.7c0.6,1,1,2.1,1.2,3.2c0,0.1,0,0.3,0,0.4&#10;&#9;&#9;c-0.2-0.2-0.3-0.4-0.5-0.7c-0.2-0.4-0.7-0.5-1.1-0.3c-0.4,0.2-0.5,0.7-0.3,1.1c0.3,0.6,0.8,1.2,1.3,1.6c0.1,0,0.1,0.1,0.2,0.1&#10;&#9;&#9;c0,0.1-0.1,0.3-0.1,0.4c0,0,0,0,0,0c-0.6-1.1-1.6-1.9-2.5-2.8c-0.7-0.7-1.8,0.4-1.1,1.1c0.6,0.6,1.3,1.2,1.9,1.9&#10;&#9;&#9;c0.2,0.2,0.3,0.5,0.4,0.7c-0.2,0-0.3,0.1-0.5,0.3c-0.4,0.5-0.8,1-1.2,1.4c0-0.3,0-0.6,0-0.9c-0.2-1-0.7-2-0.9-3&#10;&#9;&#9;c-0.1-0.8-1.3-0.4-1.2,0.3c0.3,1.7,1.4,3.1,0.5,4.8c-0.2,0.1-0.4,0.3-0.6,0.4c0,0,0-0.1,0-0.1c0.1-0.6-0.7-0.8-0.8-0.2&#10;&#9;&#9;c-0.3,1.3-1.6,2.5-2,3.8c0,0-0.1-0.1-0.1-0.1c-0.1-0.3-0.2-0.6-0.2-1c0-0.4,0.1-0.8,0.2-1.2c0.1-0.1,0.1-0.2,0.1-0.4&#10;&#9;&#9;c0.5-1.4,1.6-2.7,2.4-4c0.3-0.6-0.6-1.1-0.9-0.5c-0.6,0.9-1.2,1.8-1.8,2.8c0-0.3,0-0.6,0-1c0-0.7-1.1-0.7-1.1,0&#10;&#9;&#9;c0,0.9,0.1,1.8,0.3,2.7c-0.1,0.3-0.2,0.6-0.2,0.9c0,0.1,0,0.2,0,0.3c-0.6-0.8-1.2-1.6-1.7-2.5c-0.3-0.6-1.2-0.1-0.9,0.5&#10;&#9;&#9;c0.8,1.4,1.7,2.7,2.8,3.9c0,0,0,0.1,0,0.1c0.2,0.4,0.4,0.8,0.7,1.2c-0.4-0.6-0.9-1.1-1.4-1.6c-0.6-0.7-1.3-1.4-1.9-2.3&#10;&#9;&#9;c0,0,0-0.1-0.1-0.1c-0.5-0.8-0.9-1.7-0.8-2.8c0.1-1-1.5-1-1.6,0c0,0.6,0,1.2,0.2,1.7c-0.1,0.1-0.2,0.2-0.3,0.3&#10;&#9;&#9;c-0.2,0.4-0.1,0.8,0.3,1.1c0.2,0.1,0.4,0.3,0.5,0.4c0.1,0.1,0.3,0.3,0.5,0.4c0.3,0.4,0.5,0.7,0.8,1.1c0.7,0.8,1.5,1.6,2.2,2.5&#10;&#9;&#9;c-0.3,0.2-0.5,0.5-0.5,0.9c0,1.1-0.4,2.1-1,3.1c-0.6-0.9-0.9-2.1-1.3-3c-0.4-1.3-0.8-2.5-0.8-3.9c0-1.1-1.8-1.1-1.8,0&#10;&#9;&#9;c0,1.6,0.4,3.1,0.9,4.6c0.5,1.3,1,2.7,1.8,3.8c0,0.1-0.1,0.1-0.1,0.2c0,0.1,0,0.2,0,0.2c0,0.1-0.1,0.1-0.1,0.2&#10;&#9;&#9;c-0.5-0.9-1.2-1.7-1.9-2.5c-0.5-0.6-1.1-1.1-1.6-1.6c0.1-0.3,0.3-0.5,0.4-0.7c0.2-0.6,0.4-1.3,0.5-1.9c0.1-0.7-0.9-0.9-1-0.3&#10;&#9;&#9;c-0.1,0.8-0.3,1.5-0.6,2.2c0,0,0,0,0,0c-0.1-0.6-0.1-1.2,0-1.8c0.1-1-1.4-1.4-1.5-0.4c0,0,0,0,0,0.1c-0.3-0.7-0.5-1.4-0.6-2.3&#10;&#9;&#9;c0-0.7-1.1-0.7-1.1,0c0.1,1.7,0.7,3,1.6,4.2c0,0.1,0,0.2,0,0.3c-0.2-0.2-0.3-0.3-0.5-0.5c-0.4-0.3-0.7-0.6-1.1-0.9&#10;&#9;&#9;c-0.5-0.5-0.9-1-1.3-1.5c-0.2-1.4-0.2-2.9,0-4.3c0.1-0.7-0.9-0.9-1-0.3c-0.1,0.6-0.1,1.2-0.2,1.8c-0.1-0.5-0.1-1-0.1-1.5&#10;&#9;&#9;c0-0.6-0.5-0.9-0.9-0.8c0.1-1.6,0.6-3.2,1-4.7c0.2-0.9-1.1-1.2-1.4-0.4c-0.3,1.3-0.7,2.7-0.9,4c-0.3-1-0.6-2.1-1.2-3&#10;&#9;&#9;c-0.4-0.6-1.3,0-0.9,0.5c0.5,0.8,0.9,1.7,1.1,2.6c-0.7-0.6-1.4-1.1-2.2-1.5c-0.4-0.2-0.8-0.5-1.3-0.7c0-0.7,0.1-1.4,0.3-2&#10;&#9;&#9;c0.2-0.7-0.8-0.9-1-0.3c0,0.1,0,0.1,0,0.2c-0.2-0.9-0.5-1.9-0.9-2.8c-0.3-0.6-1.2-0.1-0.9,0.5c0.5,1.1,0.8,2.2,1,3.3&#10;&#9;&#9;c-0.7-0.5-1.3-1.2-1.6-2c-0.3-0.6-1.2-0.1-0.9,0.5c0.6,1.3,1.6,2.2,2.7,2.9c0.1,0.8,0.2,1.6,0.3,2.4c-1-1.4-2-2.8-3-4.2&#10;&#9;&#9;c-0.7-0.9-2.2,0-1.5,0.9c0.1,0.1,0.2,0.2,0.3,0.4c0.1,0.4,0.2,0.8,0.4,1.1c-0.3-0.3-0.5-0.7-0.7-1.1c-0.2-0.6-1.3-0.4-1,0.3&#10;&#9;&#9;c0.2,0.6,0.6,1.2,1,1.7c-1.1-0.8-2.1-1.8-2.8-3.1c-0.5-1-2-0.1-1.5,0.9c0.2,0.3,0.4,0.7,0.6,1c-0.2,0.2-0.3,0.5,0,0.7&#10;&#9;&#9;c0.4,0.4,0.9,0.6,1.4,0.9c0.7,0.7,1.5,1.3,2.4,1.8c0.5,0.9,1.2,1.6,1.9,2.3c-1.4-0.8-2.6-1.8-3.5-3.1c-0.3-0.4-0.5-0.8-0.9-1&#10;&#9;&#9;c-0.4-0.3-0.9-0.3-1.3,0c-0.5,0.4-0.3,1.1,0.1,1.6c-0.5,0-1-0.1-1.5-0.1c-0.7,0-0.7,1,0,1.1c0.9,0,1.7,0.1,2.6,0.2&#10;&#9;&#9;c0.3,0.3,0.7,0.6,1,0.9c-1.3-0.3-2.7-0.5-4.1-0.5c-0.7,0-0.7,1,0,1.1c2.5,0.1,4.9,0.6,7.2,1.5c3,1.7,6.3,2.9,9.2,4.8&#10;&#9;&#9;c1.2,0.8,2.3,1.7,3.2,2.7c-2.3-0.2-4.6-0.3-6.9-0.4c-0.4-0.5-0.8-1-1.1-1.4c-0.4-0.9-0.6-1.9-0.7-2.9c-0.1-0.9-1.5-0.9-1.4,0&#10;&#9;&#9;c0,0.3,0.1,0.5,0.1,0.8c-2.4-2.1-5.4-3.6-8.5-4.2c-0.6-0.1-1.4-0.1-1.6,0.5c-0.1,0.4,0.2,0.8,0.6,1c0.4,0.2,0.8,0.2,1.2,0.2&#10;&#9;&#9;c1.5,0.1,2.9,0.5,4.2,1.2c-2.7-1-5.8-0.8-8.7-0.6c-2.8,0.2-5.7,0.4-8.5,0.6c-1.1,0.1-2.3,0.2-3.4,0.7c-2.6,1.2-3.3,2.7-2.8,4.2&#10;&#9;&#9;c-1.7,0.1-3.3,0.3-5,0.4c-1.2-4.9-4.1-8.8-8.2-12c-0.6-2-0.6-3.8-0.1-5.7c1.3-2.2,2.7-4.5,3.9-6.9c3.4-3.8,8.7-5.2,12.5-8.7&#10;&#9;&#9;c3.7-3.4,5.3-8.1,6.7-12.7c0.6-2-2.4-2.8-3.1-0.8c-2,6.2-4.4,10.5-9.9,14c0.8-1.1,1.5-2.2,2.1-3.4c3.4-7,2.6-14.8,0.8-22.1&#10;&#9;&#9;c-0.5-2-3.6-1.1-3.1,0.8c0.9,3.7,1.6,7.6,1.4,11.5c-0.9-0.6-2.2-2.3-2.7-2.7c-1-1-2-2-3-3c-1.4-1.5-3.7,0.8-2.2,2.2&#10;&#9;&#9;c1.6,1.6,3.1,3.2,4.7,4.7c0.9,0.9,1.8,1.6,2.9,1.9c-0.1,0.7-0.3,1.4-0.5,2.1c-0.9,2.9-2.4,5.4-4.2,7.7c0-1,0-2-0.2-3&#10;&#9;&#9;c-1.3-7.2-7.6-11.4-13.4-15c-1.7-1.1-3.3,1.7-1.6,2.7c5.5,3.4,11.8,7.4,11.8,14.5c0,2.3-0.6,4.6-1.6,6.8c-0.1,0.1-0.1,0.1-0.2,0.2&#10;&#9;&#9;c-1.7,2.2-3,4.6-3.8,7.1c-0.4,0.6-0.7,1.1-1,1.7c-0.5-2.1-0.9-4.3-1.3-6.5c1-4.1,1.7-8.4-0.3-12.4c-2.5-5-7-9.5-10.5-13.9&#10;&#9;&#9;c-1.3-1.6-3.5,0.7-2.2,2.2c2.4,3.1,4.9,6.1,7.3,9.3c1.8,2.3,2.7,4.5,3.1,6.7c-0.2-0.3-0.3-0.6-0.5-0.9c-4.4-7-11.4-11.7-16.4-18.2&#10;&#9;&#9;c-1.2-1.6-4,0-2.7,1.6c2.3,3,5.1,5.7,7.9,8.4c-4.1-1.2-7.7-3.5-10.5-6.8c-1.3-1.6-3.6,0.7-2.2,2.2c4.3,5,10.1,7.9,16.6,8.5&#10;&#9;&#9;c1.7,1.8,3.3,3.8,4.7,5.9c1.4,2.2,2.1,4.5,2.7,6.9c0,0.3,0,0.6,0.2,0.9c0.5,2.6,0.9,5.2,1.5,7.7c-7.6-4.4-16.2-8.8-16.3-18.5&#10;&#9;&#9;c0-2-3.2-2-3.2,0c0.1,7,3.7,11.5,8.5,15.1c-0.9-0.4-1.9-0.7-2.8-1.1c-3-1.3-5.6-3.2-7.8-5.3c1.8-3.3,1-6.5-1-9.7&#10;&#9;&#9;c-3-5-6.3-9.6-9-14.8c-1-1.8-3.7-0.2-2.7,1.6c1.7,3.3,3.4,6.6,5.4,9.7c2,3.1,5.8,6.8,4.9,10.6c-2.9-3.4-5.3-7.4-7.6-11.5&#10;&#9;&#9;c-1-1.8-3.8-0.2-2.7,1.6c3.8,6.6,7.8,13.5,14.2,17.9c6.1,4.1,13.6,5.2,20,8.7c-1.5-0.3-2.9-0.4-4.3-0.6c-3.8-0.4-7.6-0.3-11.4-0.5&#10;&#9;&#9;c-5-0.3-8.1-2.9-12-5.6c-5.7-4-11.9-7.1-18.4-9.7c-1.9-0.8-2.7,2.3-0.8,3.1c6.5,2.6,12.6,5.9,18.4,9.9c2.1,1.5,4,2.7,5.9,3.6&#10;&#9;&#9;c-7.1-0.1-13.9-1.3-19.6-5.9c-1.6-1.3-3.8,0.9-2.2,2.2c12.9,10.6,29.7,4.9,44.8,6.7c0,0,0.1,0,0.1,0c1.4,0.3,2.7,0.7,4,1.2&#10;&#9;&#9;c4.4,1.7,5.6,4.6,6.7,7.8c-6.8,0.8-13.5,2.1-20.1,4c-4.6,1.3-5.8,7.4-2,10.2c5,3.8,8.8,9.7,9.8,15.9c1.9,11.7-3.8,23.5-11.7,32.4&#10;&#9;&#9;c-14.1,15.9-34.7,24.3-54.5,32.1c-2.6,1-5.2,2.1-7.8,3.1c-5,2-4.9,9,0.1,10.9c7,2.7,12.8,6.9,15.1,13.9c2.7,8.4-1.1,17.3-4.9,25.2&#10;&#9;&#9;c-5.2,11.1-10.5,22.2-15.7,33.3c-4.9,10.2-9.7,20.5-14.6,30.7c-5.3,11.2-10.7,22.7-11.9,35.1c-2.7,28.3,16.9,53,36.5,74.2&#10;&#9;&#9;c-7.7-6.2-20.2-6.4-27.5,0.6c-8.6,8.2-7.6,24.1,1.9,31.2c1.6,1.2,3.3,2.1,5,3c9.3,5.1,18.6,10.1,27.9,15.2&#10;&#9;&#9;c-7.9-3.5-19.1-4.1-22.3,5.4c-1.1,3.1-0.8,6.6,0.4,9.7c9.3,23.2,35.4,34.9,59.9,34.8c22.8-0.1,44.7-8.6,65.7-17.7&#10;&#9;&#9;c8.6-3.7,17.5-7.8,21.8-16.7c2-4,2.4-8.6,0.7-12.7c-3.2-7.8-11.6-9.2-19-10.6c-6.2-1.1-13.1-3.1-16-8.7c-2.9-5.6,2.9-14.4,8.4-11.4&#10;&#9;&#9;c-4.9-3.8-9.8-7.5-14.6-11.3c-1.7-13.1-3.4-26.3-5.1-39.4c-16-15-19-40.8-9.8-60.7c9.2-19.9,28.8-33.7,50-39.4&#10;&#9;&#9;c21.2-5.6,43.7-3.8,65,1.4c-1.8,3.1-3.7,6.3-5.5,9.4c18.7,0,35.9,16.7,36.4,35.4c-4.4,17.3-8.8,34.6-13.2,51.9&#10;&#9;&#9;c-3.3,12.9-6.6,26-6.5,39.3c0.1,13.3,4,27.1,13.4,36.6c5.8,5.8,12.8,9.4,20.5,11.1V464.6z M1327.4,450.3c-0.1,0-0.1,0.1-0.1,0.2&#10;&#9;&#9;c-0.4,0.7-0.7,1.5-0.9,2.3c0,0-0.1,0-0.1,0.1c-0.5,0.2-0.9,0.4-1.4,0.6C1325.7,452.4,1326.4,451.2,1327.4,450.3z M1324.6,451.4&#10;&#9;&#9;c-0.1,0.3-0.2,0.6-0.3,0.8c-0.6,0.7-1.2,1.4-2,1.8c-0.5,0.1-1,0.2-1.4,0.3C1322.3,453.6,1323.5,452.6,1324.6,451.4z M1311,455.8&#10;&#9;&#9;c0.7-0.6,1.4-1.1,2.2-1.5c-0.7,1.2-1.5,2.5-2.5,3.6c0,0,0,0,0,0.1L1311,455.8z M1282.3,455.4c-0.9-0.7-1.8-1.4-2.7-2.1&#10;&#9;&#9;c1,0.7,2,1.4,2.9,2.2C1282.5,455.5,1282.4,455.4,1282.3,455.4z M1282.9,450.4c-0.1-0.5-0.8-0.5-1-0.1c-0.1-0.7-0.2-1.5-0.3-2.2&#10;&#9;&#9;c1.6,0.9,3.6,1.8,4.4,3.7c0,0,0,0.1,0.1,0.1c0.1,0.5,0.2,1,0.4,1.5c0,0,0,0.1,0,0.1c0,0-0.1-0.1-0.1-0.1c-0.2-0.4-0.3-0.8-0.4-1.2&#10;&#9;&#9;c-0.1-0.6-1-0.4-1,0.1c-0.6-0.4-1.2-0.8-1.9-1.2C1283,450.9,1283,450.6,1282.9,450.4z M1285.5,454&#10;&#9;&#9;C1285.5,454,1285.5,454.1,1285.5,454C1285.5,454.1,1285.5,454.1,1285.5,454c0,0-0.1,0-0.1,0c-0.5-0.3-0.9-0.6-1.2-1&#10;&#9;&#9;C1284.6,453.3,1285.1,453.6,1285.5,454z M1286.2,456.5c-0.3-0.3-0.7-0.7-1-1c0.7,0.2,1.4,0.5,2.1,0.8c0.2,0.5,0.5,0.9,0.7,1.3&#10;&#9;&#9;C1287.5,457.1,1286.9,456.8,1286.2,456.5z M1291.2,459.4c0-0.1,0-0.1,0-0.2c0.4,0.4,0.8,0.7,1.2,1.1c0.5,0.5,1,0.9,1.6,1.4&#10;&#9;&#9;c0.1,0.2,0.3,0.4,0.4,0.5C1293.5,461.2,1292.4,460.2,1291.2,459.4z M1301.2,463.4c-0.1,0-0.2,0-0.3,0c0.1-0.3,0.3-0.5,0.5-0.8&#10;&#9;&#9;c0.3-0.1,0.5-0.2,0.7-0.3c0.1,0,0.2-0.1,0.3-0.1C1302,462.6,1301.6,463,1301.2,463.4z M1302.8,459.7c0-0.1,0.1-0.2,0.1-0.4&#10;&#9;&#9;c0,0.1,0,0.1,0.1,0.2C1302.9,459.6,1302.9,459.7,1302.8,459.7z M1307.6,459.9c-0.1,0.7-0.5,1.3-1,1.9c0-0.1,0.1-0.2,0.1-0.3&#10;&#9;&#9;c0.4-1,0.5-2.1,0.7-3.1C1307.6,458.9,1307.7,459.4,1307.6,459.9z M1306.8,455.7c-0.4,0.6-0.7,1.2-0.9,1.9c-0.3,1.1-0.4,2.2-0.8,3.3&#10;&#9;&#9;c-0.3,1-0.8,1.9-1.4,2.8c-0.2,0-0.4,0-0.6,0c0.1-0.1,0.2-0.2,0.3-0.4c0.1-0.1,0.1-0.2,0.2-0.2c0.9-1.1,1.5-2.4,1.4-3.8&#10;&#9;&#9;c0.1-0.2,0-0.5-0.1-0.6c0-0.2-0.1-0.4-0.1-0.6c0-0.1,0-0.1,0-0.2c-0.3-1.9,0.2-3.8,1.8-5c1.3-0.9,2.4-1.6,3.4-2.7&#10;&#9;&#9;c0,0.1,0,0.1,0,0.2c-0.2,0.5-0.5,1-0.8,1.5c-0.1,0-0.2,0.1-0.3,0.1C1307.6,452.5,1306.7,454.1,1306.8,455.7z" transform="matrix(1, 0, 0, 1, 0, 0)"/><path fill="#1C3151" d="M207.1,853.3c-4.4-6.7-2.8-15.5,4-21c1.1-0.9,2.3-1.7,3.6-2.4c3.4-1.8,2.3-5.8-1.7-6.5&#10;&#9;&#9;c-6.6-1.2-13.2-2.4-19.8-3.7c7.1-0.8,14.3-1.6,21.4-2.4c2.5-0.3,2.5-3.1-0.1-3.3c-20-1.5-39.7-5.2-53.5-15.8&#10;&#9;&#9;c-22.6-17.4-20.1-45.6-14.3-69.8c5.8-24.1,12.7-51-4.6-71.6c-13-15.5-39-27.2-37.7-45.6c0.7-9.8,9.9-18.3,20.9-23.4&#10;&#9;&#9;c0.6-0.3,1.2-0.5,1.9-0.8c5.1-2.1,2.9-8.1-2.9-8c-41.1,0.4-82.2,0.8-123.3,1.2L0,583.2v341.9c1.8,0.1,3.7,0.1,5.5,0.2&#10;&#9;&#9;c49.4,2,98.8,3.9,148.3,5.9c60.4,2.4,120.9,4.8,181.3,2.4c42.3-1.7,84.4-5.6,125.9-11.9c-74.1-17.7-148.2-35.4-222.3-53&#10;&#9;&#9;C226.4,865.7,212.9,862,207.1,853.3z" transform="matrix(1, 0, 0, 1, 0, 0)"/><path fill="#1C3151" d="M992.5,765.1c1.1,5.1,5.1,9,8.9,12.6c0.6,1.6,1.3,3.2,2.2,4.7c4.1,7.3,10.2,13.3,16.5,18.7&#10;&#9;&#9;c7.5,6.2,15.4,12,23.1,17.9c8,6.1,16.8,11.9,24.2,18.8c7.6,7.1,8.3,16.4,8.3,26.3c0,2.4,3.8,2.2,3.8-0.2c0-10-0.8-19.9-8.1-27.5&#10;&#9;&#9;c-0.8-0.8-1.6-1.6-2.4-2.3c-0.3-6.7-1.9-13.2-4.6-19.3c6.2-3.5,9.7-9.9,10.9-16.9c1.2-2.4,2.3-4.8,3.3-7.3c1.3-3.4,1.8-7,2.2-10.6&#10;&#9;&#9;c0.2-1.6-2.3-2.1-2.5-0.5c-0.4,3.6-0.9,7.1-2.2,10.5c0.3-8-0.7-16.2-1.6-23.9c-0.2-2-3.4-1.8-3.2,0.2c0.7,5.9,1.3,11.9,1.5,17.8&#10;&#9;&#9;c-1.1-2.6-1.7-5.2-1.8-8.3c-0.1-4.1,0-8.2-1.2-12.2c-0.5-1.6-2.9-0.8-2.4,0.8c1.5,4.9,0.7,9.9,1.3,14.8c0.5,3.9,2.1,7.2,4.1,10.5&#10;&#9;&#9;c0,0.9,0,1.8-0.1,2.7c-0.1,1.9-0.4,3.9-0.8,5.9c-0.6-2.8-2.1-5.6-3.5-8.3c-3.6-6.8-3.7-15-4.8-22.6c-0.2-1.6-2.7-1.5-2.5,0.1&#10;&#9;&#9;c0.8,6,1.1,12.5,2.8,18.3c0.3,0.9,0.7,1.9,1.1,2.8c-1.7-2-3-4.1-3.9-6.7c-0.5-1.5-2.9-0.7-2.4,0.8c1.2,3.6,3.2,6.2,5.8,9&#10;&#9;&#9;c4.1,4.5,4.6,10.1,3.4,15.8c0,0.1,0,0.1,0,0.2c-1.3,1.7-2.9,3.2-4.9,4.3c-0.1-0.2-0.2-0.4-0.3-0.5c-1-1.7-2-3.4-3.2-5&#10;&#9;&#9;c0-0.1-0.1-0.3-0.2-0.4c-4.9-6.2-2.8-14.3-3.3-21.6c-0.1-1.4-0.2-2.8-0.4-4.1c2.7-1.7,2.9-5.7,3.3-8.6c0.8-5.4,1-10.8,0.8-16.2&#10;&#9;&#9;c-0.1-1.6-2.6-1.5-2.5,0.1c0.2,4,0.1,8-0.3,12c-0.2,1.9-0.2,6.8-1.6,9.3c-0.1-1.3-0.2-2.7-0.1-4.1c0.1-4.1,0.6-8.2,1.1-12.3&#10;&#9;&#9;c0.2-1.6-2.3-2.1-2.5-0.5c-0.5,4.1-1,8.2-1.1,12.4c-0.1,4.5,0.7,8.9,0.9,13.4c0.2,4.5-0.4,9.3,0.3,13.7c-1.6-1.8-3.3-3.5-5-5.2&#10;&#9;&#9;c-2.1-2.1-4.2-4.3-6.2-6.5c0.1-0.1,0.2-0.3,0.2-0.5c0.6-2.5,1.5-5,2-7.6c0.1-0.1,0.2-0.1,0.3-0.3c4.3-4.8,1.5-11.1,3-16.7&#10;&#9;&#9;c0.4-1.6-2-2.1-2.5-0.5c-1,3.8,0.2,8.4-0.7,12.2c0-0.2-0.1-0.5-0.1-0.7c-1.3-5.4-2.4-10.4-2.2-16.1c0.1-1.6-2.5-1.5-2.5,0.1&#10;&#9;&#9;c-0.2,4.5,0.3,8.9,1.4,13.2c0.8,3,1.4,5.5,0.7,8.7c-0.5,2-1,4-1.5,6c-2.2-2.6-4.3-5.4-6-8.4c1.2-1.3,1.3-3.1,1.2-5&#10;&#9;&#9;c-0.2-4.2-0.5-8.4-0.7-12.6c0-0.9-0.8-1.2-1.5-1.1c1.1-4.4,2.1-8.9,2.7-13.5c0.2-1.6-2.3-2.1-2.5-0.5c-0.7,5.5-1.8,11-3.2,16.3&#10;&#9;&#9;c-0.1,0.4-0.2,0.7-0.3,1.1c-0.1-3.7,0.4-7.4,1.4-11c0.6-2-2.5-2.6-3.1-0.7c-1.8,6.1-2.1,12.6-0.7,18.8c-0.8,2.3-1.5,4.5-2.1,6.8&#10;&#9;&#9;c0,0,0,0.1,0,0.1c-1.9-4.2-1.9-9.2-2-13.8c-0.2-6.5,0.2-13,0.9-19.5c0.2-1.6-2.3-2.1-2.5-0.5c-0.3,2.5-0.5,5-0.7,7.6&#10;&#9;&#9;c-0.7-0.6-1.9-0.5-2,0.6c-0.5,4.3-0.6,8.7-0.4,13c0.3,4.5,0.3,8.8-3.2,11.6c0.3-5.2,1.3-10.4,2.9-15.4c0.5-1.5-2-2.1-2.5-0.5&#10;&#9;&#9;c-3.4,10.4-4,21.4-1.8,32.1c-1.6-1.6-3.1-3.4-4.5-5.2c0.9-3.9,1.6-7.9,1.8-12c0.1-3.8-0.6-7.4-1.3-11.1c0.1-0.1,0.1-0.1,0.2-0.2&#10;&#9;&#9;c2.2-2.7,2.7-5.8,2.9-9.2c0.3-4.9,0.3-9.8,0.4-14.8c0-1.6-2.5-1.5-2.5,0.1l-0.3,11.5c-0.1,3,0,6.3-1.3,9c-1.7-9.4-2.6-19-2.8-28.5&#10;&#9;&#9;c0-1.6-2.6-1.5-2.5,0.1c0.2,9.5,1.1,18.9,2.7,28.2c0.8,4.4,1.9,8.7,2,13.2c0.1,3.7-0.5,7.3-1.2,10.8c-0.6-0.9-1.2-1.9-1.8-2.9&#10;&#9;&#9;c-0.2-0.3-0.4-0.7-0.5-1c0-0.2-0.1-0.5-0.4-0.7c0,0,0,0,0,0c-4.2-8.7-4.4-18.6-4.6-28.1c0-2.4-3.8-2.2-3.8,0.2&#10;&#9;&#9;c0.1,7.2,0.4,14.5,2.2,21.4c-0.2-0.2-0.4-0.4-0.6-0.7c-2.6-2.8-3.8-5.5-4.4-9.4c-1-6.8-1.5-13.6-1.5-20.5c0-1.6-2.5-1.5-2.5,0.1&#10;&#9;&#9;C990.6,749.5,990.9,757.6,992.5,765.1z M1033.4,774.6c-1-2.2-1.7-4.5-2.2-6.8c0.6-1.9,1.1-3.8,1.7-5.7c0.1,1.9,0.2,3.7,0.3,5.6&#10;&#9;&#9;C1033.2,768.9,1033.9,772.5,1033.4,774.6z M1029.2,774.2c0.1-0.3,0.2-0.6,0.3-0.9c0.1,0.3,0.3,0.7,0.4,1&#10;&#9;&#9;c2.7,6.6,7.3,12.2,12.1,17.3c5.4,5.7,11.3,11.1,15.8,17.7c4.4,6.6,7,14.1,7.8,21.9c-1.5-1.2-3-2.3-4.5-3.4&#10;&#9;&#9;c-4.3-3.3-8.6-6.5-12.9-9.8c-5.5-4.2-11-8.3-16.5-12.5C1028.6,795.2,1025.9,785,1029.2,774.2z M1016.2,778.2&#10;&#9;&#9;c3.3-1.7,5.3-4.7,5.8-8.3c0.4,3.5,1.3,7,3.4,9.9c-1,7.8,0.7,15.5,2.9,23c-1.2-1-2.5-1.9-3.7-2.9c-2.1-1.7-4.2-3.5-6.3-5.4&#10;&#9;&#9;C1016.9,789.2,1016.1,783.7,1016.2,778.2z" transform="matrix(1, 0, 0, 1, 0, 0)"/><path fill="#0E111B" d="M1375.2,725.1c-3.6-0.5-7.1-0.9-10.6-0.7c3.1-3.2,5.7-6.9,7.9-10.9c2.5-4.5-4.5-8.6-6.9-4.1&#10;&#9;&#9;c-2.4,4.5-5.6,8.5-9.3,11.8c0.3-0.7,0.6-1.4,1-2.1c1.6-3.2-3.3-6.1-4.9-2.8c-1.7,3.4-3.1,6.9-4.1,10.6c-0.2,0.1-0.4,0.2-0.5,0.3&#10;&#9;&#9;c-2.1,1.1-4.2,1.9-6.4,2.6c4.5-5.5,8-12.1,14-16.3c2.9-2.1,0.1-6.9-2.8-4.9c-2,1.4-3.7,3-5.3,4.7c0.2-0.7,0.4-1.5,0.5-2.3&#10;&#9;&#9;c0.6-3-4-4.3-4.6-1.3c-0.2,1.2-0.5,2.4-0.8,3.5c-0.8-0.5-1.9-0.6-2.7,0.5c-6,7.7-13.5,13.3-22.4,17.3c-5.3,2.4-9.7,5.5-13.6,9.1&#10;&#9;&#9;c-3.3,1.6-6.5,3.4-9.6,5.4c-4.4,2.9-8.7,6-13.2,8.8c1.9-1.7,3.8-3.3,5.9-4.8c6.4-4.7,12.8-9.2,19-14.2c4.1-3.3,8.4-6.9,12.3-10.8&#10;&#9;&#9;c0.2-0.1,0.3-0.3,0.5-0.4c0.1-0.1,0.2-0.2,0.3-0.2c1.8-1,3.6-1.8,5.3-2.7c4.3-2.2,8.6-4.2,13.1-6c2.8-1.2,0.4-5.4-2.4-4.2&#10;&#9;&#9;c-2.9,1.2-5.7,2.5-8.6,3.8c0.4-0.5,0.7-1.1,1-1.6c0.6-0.1,1.2-0.4,1.6-1.1c2.4-3.7,5.4-6.8,9-9.3c2.5-1.7,0.1-5.9-2.4-4.2&#10;&#9;&#9;c-1.3,0.9-2.5,1.8-3.7,2.9c0,0,0-0.1,0-0.1c0.6-3.5-4.8-5.1-5.4-1.5c-0.8,4.3-2.5,8.2-4.7,11.8c0.1-1.5,0-3-0.1-4.5&#10;&#9;&#9;c-0.3-3.6-5.9-3.6-5.6,0c0.4,4.8-0.2,9.3-1.9,13.8c-0.2,0.2-0.3,0.3-0.5,0.5c-1.7,1-3.2,2.2-4.6,3.6c-0.4,0.4-0.6,0.8-0.7,1.2&#10;&#9;&#9;c-3.3,2.8-6.6,5.4-9.8,7.8c-3,2.3-6.2,4.6-9.5,6.9c2.2-3.4,4.2-6.9,6.3-10.5c3.4-1.3,7-2.4,10.5-3.5c3-0.9,1.7-5.5-1.3-4.6&#10;&#9;&#9;c-2.6,0.8-5.1,1.6-7.6,2.4c-1-1.2-3-1.6-4,0.1c-0.3,0.6-0.6,1.1-0.9,1.7c-4.5,1.8-8.9,4-12.8,6.8l0-0.1c0-0.1,0.1-0.1,0.1-0.2&#10;&#9;&#9;c4-5.4,9.8-8,15.5-11.2c9.8-5.5,17.9-13.4,23.9-22.8c1.7-2.6-2.5-5-4.2-2.4c-3.4,5.4-7.5,10.2-12.4,14.3c-3.9,3.3-8.1,5.7-12.5,8.1&#10;&#9;&#9;c-0.6-0.7-1.6-1.1-2.5-0.8c-2.8,1.1-5.4,2.5-7.8,4.1c5.7-10.2,15.5-17.7,24.7-24.7c3.7-2.8,0.1-9-3.7-6.2c-4.6,3.4-9.1,7-13.4,10.8&#10;&#9;&#9;c0.7-2.5,1.2-5.1,1.7-7.7c3.9-4.5,8.1-8.7,12.5-12.7c3.5-3.1-1.6-8.2-5.1-5.1c-2.2,1.9-4.3,3.9-6.3,6c0.1-4.6-0.3-9.3-1.1-14.1&#10;&#9;&#9;c-0.9-4.9-8.2-3-7.8,1.7c-2-2.7-6.6,0-4.7,3c2.9,4.6,4.7,9.5,5.4,14.7c-0.1,0.6-0.1,1.1-0.2,1.7c-0.9-1-1.6-2-2.3-3.2&#10;&#9;&#9;c-1-1.7-3.3-2.3-4.9-1.3c-1.7,1-2.3,3.2-1.3,4.9c1.6,2.8,3.7,5.3,6.2,7.3c0.3,0.2,0.5,0.4,0.8,0.5c-0.2,0.7-0.3,1.3-0.5,2&#10;&#9;&#9;c0,0,0,0,0-0.1c-2.8-4.9-7.4-8.8-11.4-12.8c-3.3-3.3-8.4,1.8-5.1,5.1c2.9,2.9,6.1,5.6,8.6,8.9c0.9,1.1,1.5,2.2,2,3.3&#10;&#9;&#9;c-0.8,0.2-1.6,0.7-2.2,1.5c-1.6,2.3-3.5,4.4-5.5,6.2c0.1-1.4,0-2.8-0.2-4.2c-0.8-4.8-3.1-9.1-4-13.9c-0.7-3.6-6.1-2-5.4,1.5&#10;&#9;&#9;c1.5,7.7,6.2,14.1,2.5,22c-0.9,0.6-1.8,1.2-2.7,1.8c0-0.2,0.1-0.3,0.1-0.5c0.5-2.5-3.4-3.6-3.9-1.1c-1.2,6-7.2,11.4-9.4,17.3&#10;&#9;&#9;c-0.2-0.2-0.4-0.4-0.5-0.6c-0.5-1.4-0.9-2.9-0.9-4.6c0-1.9,0.2-3.7,0.7-5.4c0.4-0.4,0.6-1,0.5-1.7c2.3-6.6,7.4-12.5,10.9-18.3&#10;&#9;&#9;c1.6-2.7-2.6-5.1-4.2-2.4c-2.6,4.3-5.6,8.4-8.1,12.7c-0.1-1.5-0.2-2.9-0.2-4.4c0-3.1-4.8-3.1-4.8,0c0,4.2,0.5,8.3,1.5,12.4&#10;&#9;&#9;c-0.4,1.3-0.7,2.6-0.9,4c-0.1,0.4-0.1,0.8-0.1,1.2c-2.8-3.6-5.3-7.5-7.6-11.5c-1.5-2.7-5.7-0.3-4.2,2.4c3.6,6.5,8,12.6,13,18.1&#10;&#9;&#9;c0.1,0.2,0.1,0.3,0.2,0.5c0.9,2,2,3.7,3.2,5.5c-2.1-2.5-4.3-5-6.4-7.4c-2.8-3.3-6.1-6.6-8.5-10.3c-0.1-0.2-0.2-0.4-0.4-0.6&#10;&#9;&#9;c-2.4-3.8-4.1-7.9-3.7-12.7c0.3-4.6-6.9-4.6-7.2,0c-0.2,2.7,0.1,5.3,0.8,7.8c-0.5,0.3-0.9,0.7-1.2,1.2c-0.9,1.8-0.4,3.9,1.3,4.9&#10;&#9;&#9;c0.8,0.5,1.9,1.3,2.4,1.7c0.5,0.4,1.5,1.3,2.2,1.9c1.2,1.7,2.5,3.4,3.8,5c3.1,3.7,6.9,7.4,10.3,11.4c-1.3,0.7-2.3,2.1-2.3,4.1&#10;&#9;&#9;c0.1,5.1-2,9.6-4.6,14c-2.6-4.2-4.2-9.4-5.8-13.9c-2.1-5.8-3.5-11.6-3.5-17.7c0-5.2-8.1-5.2-8,0c0.1,7.3,1.8,14.4,4.3,21.2&#10;&#9;&#9;c2.2,6,4.5,12.3,8.3,17.4c-0.2,0.3-0.3,0.7-0.4,1.1c-0.1,0.4-0.2,0.7-0.2,1.1c-0.2,0.3-0.3,0.6-0.4,0.9c-2.4-4.1-5.4-7.9-8.7-11.5&#10;&#9;&#9;c-2.4-2.6-5-5-7.4-7.5c0.6-1.3,1.3-2.5,1.6-3.4c1.1-2.9,1.7-5.9,2.2-8.9c0.4-3-4.2-4.3-4.6-1.3c-0.5,3.6-1.5,6.8-2.7,10&#10;&#9;&#9;c0,0-0.1-0.1-0.1-0.1c-0.5-2.7-0.6-5.4-0.2-8.2c0.6-4.6-6.4-6.5-7-1.9c0,0.1,0,0.2,0,0.3c-1.5-3.1-2.5-6.5-2.7-10.4&#10;&#9;&#9;c-0.2-3.1-5-3.1-4.8,0c0.4,7.8,3.3,13.8,7.5,19.2c0.1,0.5,0.1,1,0.2,1.5c-0.7-0.7-1.5-1.4-2.2-2.1c-1.7-1.5-3.4-2.9-5.2-4.2&#10;&#9;&#9;c-2.1-2.2-4.1-4.5-5.8-7c-0.9-6.5-1-13.1,0-19.7c0.4-3-4.2-4.3-4.6-1.3c-0.4,2.8-0.6,5.6-0.7,8.4c-0.4-2.1-0.5-4.4-0.4-6.7&#10;&#9;&#9;c0.1-2.8-2.1-4-4.2-3.8c0.7-7.3,2.6-14.5,4.4-21.4c1.1-4-5.1-5.7-6.2-1.7c-1.6,6.1-3.1,12.2-4,18.4c-1.2-4.8-2.8-9.4-5.7-13.7&#10;&#9;&#9;c-1.7-2.6-5.9-0.2-4.2,2.4c2.4,3.6,4,7.7,5.2,11.8c-3-2.7-6.5-5-10.1-7.1c-1.9-1.1-3.8-2.1-5.8-3.3c0-3.1,0.4-6.2,1.3-9.3&#10;&#9;&#9;c0.9-3-3.8-4.3-4.6-1.3c-0.1,0.3-0.1,0.6-0.2,0.8c-0.9-4.3-2.1-8.6-4.1-12.7c-1.4-2.8-5.5-0.3-4.2,2.4c2.3,4.8,3.6,9.9,4.4,15.1&#10;&#9;&#9;c-3.1-2.5-5.8-5.5-7.5-9.3c-1.3-2.8-5.4-0.4-4.2,2.4c2.6,5.9,7.3,10,12.6,13.4c0.4,3.7,0.8,7.5,1.3,11.2c-4.6-6.5-9.1-13-13.7-19.3&#10;&#9;&#9;c-3-4.1-10-0.1-6.9,4.1c0.4,0.6,0.8,1.1,1.2,1.7c0.4,1.7,1,3.5,1.6,5.2c-1.2-1.4-2.2-3.1-3-5.1c-1.1-2.9-5.8-1.6-4.6,1.3&#10;&#9;&#9;c1.1,2.9,2.7,5.6,4.7,7.9c-5.2-3.9-9.8-8.3-12.7-14.3c-2.3-4.6-9.2-0.6-6.9,4.1c0.8,1.6,1.7,3,2.6,4.4c-0.9,0.8-1.3,2.3,0,3.3&#10;&#9;&#9;c2,1.7,4.1,3,6.4,4c3.3,3.1,7,5.9,10.9,8.4c2.4,3.9,5.4,7.4,8.8,10.6c-6.2-3.8-11.8-8.4-16.2-14.2c-1.3-1.7-2.5-3.5-4.2-4.6&#10;&#9;&#9;s-4.3-1.4-5.9,0c-2.1,1.9-1.2,5,0.5,7.5c-2.2-0.2-4.5-0.3-6.8-0.3c-3.1,0-3.1,4.8,0,4.8c4,0,8,0.4,12,1c1.5,1.4,3.1,2.7,4.7,4&#10;&#9;&#9;c-6.2-1.3-12.5-2.1-18.9-2.4c-3.1-0.1-3.1,4.7,0,4.8c11.4,0.4,22.5,2.8,33,6.8c13.6,7.6,28.7,13.5,41.9,21.8&#10;&#9;&#9;c13.9,8.7,23.5,22.3,32.7,35.8c-0.7-0.1-1.4-0.3-2.1-0.5c-10.3-5.8-19.5-13.1-27.5-21.8c-3.8-4.2-10.1,2.1-6.3,6.3&#10;&#9;&#9;c2.5,2.8,5.2,5.4,8,8c-5.3-2.4-10.3-5.3-14.7-9.3c-4.7-4.3-8.4-9.6-12.5-14.6c-1.6-4.2-2.7-8.6-3-13.2c-0.3-4.1-6.8-4.1-6.4,0&#10;&#9;&#9;c0.1,1.2,0.2,2.5,0.4,3.7c-11-9.8-24.7-16.5-39.1-19.1c-2.8-0.5-6.5-0.3-7.2,2.5c-0.5,1.8,0.9,3.6,2.5,4.4c1.7,0.8,3.6,0.8,5.4,0.9&#10;&#9;&#9;c10.4,0.7,20.6,5,28.4,11.9c-2.1,1.9-1.4,6.4,2.3,6.4c1.4,0,2.7,0.2,4,0.5c1.9,2.4,3.6,5,5.4,7.5c-1.8-0.2-3.6-0.3-5.4-0.3&#10;&#9;&#9;c-4.7,0-4.7,7.3,0,7.2c4,0,7.8,0.5,11.6,1.5c0.8,0.9,1.6,1.9,2.5,2.7c9.4,9.8,22.7,14.6,35.2,19.8c12.5,5.2,31.4,10.9,31.8,24.5&#10;&#9;&#9;c0.2,8.6,0.5,17.3,0.7,25.9l30.7,3.3c-4.7-23.8,1.5-49.5,16.5-68.5c3-3.7,6.3-7.3,8.5-11.5c7.4-4,13.8-9.7,21.8-12.4&#10;&#9;&#9;c9.6-3.2,19.9-1,29.4-4.3c5.8-2,3.3-11.3-2.6-9.3c-4.9,1.7-9.8,1.6-14.9,1.8c1.6-0.8,3.2-1.6,4.8-2.3c0.3-0.1,0.5-0.1,0.8-0.3&#10;&#9;&#9;c0.2-0.1,0.3-0.2,0.5-0.3c1.9-0.8,3.9-1.6,5.9-2.2c11.8-2.9,25.2,1.5,37.1-1.5c3.5-0.9,2-6.3-1.5-5.4c-3.4,0.9-6.9,1.2-10.5,1.2&#10;&#9;&#9;c0.6-0.2,1.2-0.5,1.8-0.7c3.8-1.1,7.6-2.6,11.1-4.8c0.9-0.5,1.7-1.1,2.6-1.7c5.5-2,10.7-2.1,16.9-1.2&#10;&#9;&#9;C1376.9,730.2,1378.2,725.5,1375.2,725.1z M1146.5,738.7c-4-3.1-8.2-6.2-12.2-9.7c4.6,3.2,9.1,6.6,13.4,10.2&#10;&#9;&#9;C1147.3,739,1146.9,738.8,1146.5,738.7z M1149.2,715.9c-0.6-2.3-3.5-2.1-4.5-0.5c-0.6-3.4-1-6.8-1.4-10.1c7.6,4.3,16.5,8.5,20,16.9&#10;&#9;&#9;c0.1,0.2,0.2,0.4,0.3,0.5c0.5,2.3,1.1,4.5,1.8,6.7c0,0.2,0.1,0.3,0.1,0.5c-0.2-0.2-0.4-0.3-0.5-0.5c-0.7-1.8-1.3-3.7-1.7-5.7&#10;&#9;&#9;c-0.6-2.8-4.4-1.9-4.7,0.5c-2.7-2-5.6-3.7-8.5-5.4C1149.8,717.9,1149.5,716.9,1149.2,715.9z M1155,727.6c2.1,1.5,4.1,3.1,6,4.7&#10;&#9;&#9;c0,0.1,0.1,0.2,0.1,0.3c0,0-0.1,0-0.1,0c-0.2-0.2-0.4-0.3-0.6-0.5C1158.3,730.9,1156.5,729.4,1155,727.6z M1164.3,743.7&#10;&#9;&#9;c-1.5-1.5-3-3.1-4.5-4.7c3.3,1.1,6.6,2.2,9.8,3.5c1,2.1,2.1,4.1,3.3,6C1170.1,746.7,1167.2,745.2,1164.3,743.7z M1187.3,757.1&#10;&#9;&#9;c0-0.3,0-0.7-0.1-1c1.9,1.6,3.7,3.2,5.5,4.9c2.4,2.2,4.8,4.3,7.2,6.5c0.6,0.8,1.2,1.6,1.8,2.4&#10;&#9;&#9;C1197.5,765.1,1192.6,760.8,1187.3,757.1z M1240.7,756.8c0.1,0.3,0.2,0.6,0.2,0.9c-0.2,0.3-0.5,0.6-0.8,0.8&#10;&#9;&#9;C1240.4,758,1240.6,757.4,1240.7,756.8z M1231.6,775.2c0.7-1.3,1.4-2.5,2.1-3.8c1.2-0.5,2.3-0.9,3-1.2c0.4-0.2,0.8-0.4,1.2-0.6&#10;&#9;&#9;c-1.4,2-3.2,3.8-4.9,5.7c-1,1.1-2.2,2.3-3.3,3.7C1230.3,777.6,1230.9,776.4,1231.6,775.2z M1262.3,759.4c-0.5,3.3-2.3,6.1-4.6,8.6&#10;&#9;&#9;c0.2-0.5,0.4-1.1,0.6-1.6c1.7-4.6,2.2-9.5,3.4-14.2C1262.3,754.6,1262.7,756.9,1262.3,759.4z M1273.6,715c-1.1,2.4-2.3,4.8-3.6,7.1&#10;&#9;&#9;c-0.4,0.1-0.9,0.3-1.3,0.5c-6.5,3-10.7,10.2-10.2,17.3c-1.7,2.7-3.2,5.5-4.1,8.6c-1.5,5-1.8,10.2-3.6,15.1&#10;&#9;&#9;c-3,8.4-8.1,15.9-13.5,23.1c-1.7,1.5-3.3,3-5,4.5c0.2-0.7,0.2-1.5-0.2-2.4c1-2.2,2.3-4.2,3.9-6.1c0.6-0.7,1.1-1.2,1.3-1.4&#10;&#9;&#9;c2.1-2.3,4.3-4.5,6.2-7c0.3-0.4,0.5-0.7,0.8-1.1c4.1-5.1,6.8-10.8,6.6-17.3c0.3-1.1,0.1-2.1-0.3-2.8c-0.2-1-0.4-1.9-0.7-2.8&#10;&#9;&#9;c0-0.3,0-0.6,0-0.8c-1.2-8.6,0.7-17.6,8.1-22.9c5.8-4.1,11.1-7.5,15.8-12.5C1273.7,714.4,1273.6,714.7,1273.6,715z M1276,750.3&#10;&#9;&#9;l1.6-9.7c3-2.8,6.3-5,9.9-6.9c-3.4,5.7-7,11.2-11.4,16.3C1276.1,750.1,1276.1,750.2,1276,750.3z M1338.7,724.4&#10;&#9;&#9;c-2.6,3.4-5.4,6.4-9.3,8.1c-2.2,0.4-4.4,0.8-6.5,1.2c6.5-3.3,12.3-7.8,17.2-13.2C1339.7,721.8,1339.2,723.1,1338.7,724.4z" transform="matrix(1, 0, 0, 1, 0, 0)"/><path fill="#0E111B" d="M1334.8,737.5c-5.7,1-5.8,9.1-0.2,10.3c10.7,2.3,21.3,4.7,32,7c1.6,0.3,2.9,1.6,3.1,3.2&#10;&#9;&#9;c0.4,2.9-2.9,3.9-5.4,4.3c-13.9,2-27.9,4-41.8,6c1.3,4.1,6.7,5.2,10.9,4.5c5.4-1,10.6-3.8,16.1-1c2.6,1.3,3.9,4.5,2.7,7.1&#10;&#9;&#9;c-1.3,2.8-4.5,3.2-7.3,3.7c-12,2.3-22.4,11.6-25.9,23.4c0,0.1,0,0.1,0,0.2c-15.1,5.6-30.1,11.1-45.3,15.9&#10;&#9;&#9;c-68.5,21.5-140,28-212.1,28.2c-3.7-4.4-8.7-7.8-14.2-9.4c-5.3-1.5-10.8-1.5-16.3-1.4c-7,0.1-14.1,0.1-21.1,0.2&#10;&#9;&#9;c-6,0-12.2,0.2-17.4,3.1c-2.4,1.3-4.4,3.5-5.7,6c-23.9-1-47.8-2.3-71.5-3.6c-113.5-6.4-227-12.7-340.6-19.1&#10;&#9;&#9;c-0.1-0.1-0.3-0.1-0.4-0.2c-12.4-6.7-25.7-11.7-39.6-14c-6.4-1.1-18.6-4.7-22.5,2.6c-1.3,2.3-1.2,5.3-0.5,8.2&#10;&#9;&#9;c-122.1-6.8-244.2-13.7-366.3-20.5C96.2,799.1,43.9,795.1,0,775.3V980h1400V846.5V780v-54.3&#10;&#9;&#9;C1378.3,729.7,1356.5,733.6,1334.8,737.5z" transform="matrix(1, 0, 0, 1, 0, 0)"/><path fill="#0E111B" d="M275.4,882.3c-6.2-7.4,5.1-16,8.6-21.5c2-3.2-0.2-5.2-3.5-4.3c-2.8,0.8-5.9,1.8-8.5,3.1&#10;&#9;&#9;c-2.7,1.2-6.3,3.4-9.4,2.9c-2.8-0.4-4.5-3.6-6.1-5.6c-1.8-2.4-3.5-4.8-5.4-7.1c-2.6-3.2-3.6-2.2-7.1-0.9c-0.2,1.7-0.5,2.8-0.6,4.2&#10;&#9;&#9;c-0.1,2.4,0,5.2,0.5,7.5c0.6,2.6,2.5,4.8,2.9,7.4c0.5,3.9-4.4,6.2-7.1,8c-2.8,1.8-5.9,3.4-8.9,4.9c-1.5,0.8-3.9,2.2-2.6,4.1&#10;&#9;&#9;c1.1,1.6,4,1.2,5.5,1.1c3-0.2,5.8-0.4,8.7-0.7c2.1-0.2,5.1,0.5,6.2,2.2c1.1,1.7,0.5,4.6,0.4,6.5c-0.2,4,0.3,8,0,12&#10;&#9;&#9;c-0.1,1.7-1.1,5.2,1.3,5.1c3.3-0.1,7.6-6.4,9.1-8.8c2.3-3.9,3.3-8.6,8.2-9.6c2.7-0.5,5.7,0.1,8.4,0.7c3.5,0.8,6.7,1.9,10.3,2.4&#10;&#9;&#9;c3,0.5,9.8-0.4,8.3-5.1C292.4,883.9,279.7,887.5,275.4,882.3z" transform="matrix(1, 0, 0, 1, 0, 0)"/><path fill="#0E111B" d="M1096.4,541c-6.4,1-12.3-0.3-18.7-1.3c-2.2-0.3-2.2-5.2-1.6-7.1c-0.4,0.4-1.4,0.5-1.9,0.7&#10;&#9;&#9;c-1,0.3-1.1,0.9-2.3,0.5c-2.2-0.8-1.5-3.6-3-5c-2.2-2.1-2.2,1-3.6,1.6c-2.5,1.1-4.2-3.3-6-4.1c-1,0.9-2.3,1.8-3.7,2.1&#10;&#9;&#9;c-1.5,0.3-3-0.4-4.5,0c-3.9,0.9-6.8,3.6-9.5,6.4c-0.7,0.3-1.5,0.5-2.2,0.8c-1.5,0.5-1.4,0.8-2.2,2.2c-0.7,1.2-1.5,2.4-2.3,3.6&#10;&#9;&#9;c-0.5,0.6-1.2,1.2-1.6,1.9c-0.6,0.9-0.3,0.7-0.4,1.7c-0.1,1.5-0.2,3.1-0.1,4.5c0,0.1,0,0.2,0,0.3c-0.4,1.3-0.6,2.6-0.8,4&#10;&#9;&#9;c-0.2,0.4-0.4,0.7-0.6,1.1c-0.5,0.8-0.9,1.6-1.2,2.5c-0.6,1.4-0.4,0.9-0.1,2.1c0.9,3.6,2.9,7.4,2.1,11.3c5.3,2.8,6.4,8.4,7.9,13.8&#10;&#9;&#9;c4.8,0.2,9.1,6.7,9.8,10.8c2.6,0.5,4.7,1.3,5.9,4c0.8,1.9,1.3,4.7,1.1,6.8c-0.1,1.6-0.4,1.9,0.4,3.3c0.8,1.4,1.4,3,2.1,4.4&#10;&#9;&#9;c0,0,0,0,0,0c-0.2,1.6-0.4,3.2-0.3,4.7c0.1,6.2-2.2,14-6,18.9c-3.6,4.7-7,9.9-8.9,15.5c-1.5,4.4-2.7,11.9,1.5,15.4&#10;&#9;&#9;c3.6,3,9.6,4.1,14.1,3.1c6.1-1.3,9.3-4.3,10.7-10.2c1.2-5.1-0.8-10.2-6.6-9.7c-2.6,0.2-5.5,1.7-6.8,4.1c-1,2.1-0.9,5.2,1.6,6.2&#10;&#9;&#9;c3.5,1.3,8-3.9,7.1-5.6c2.2,1.8,0.3,5.4-0.8,7.3c-1.4,2.4-3.9,4.2-6.7,4.6c-3.2,0.5-6.6-0.9-8.4-3.6c-1.6-2.4-1.8-5.5-1.2-8.2&#10;&#9;&#9;c1.1-4.6,4.4-8.7,7.9-11.7c1.9-1.7,4-2.8,6.3-3.8c0.7-0.3,1.4-0.8,2.1-1.2c1.6-0.7,3.2-1.4,4.6-2.2c2.1-1.2,3.5-3.1,5.3-4.7&#10;&#9;&#9;c2-1.9,4.4-3.4,5.7-5.9c2.8-5.1,6.1-9.3,8.3-14.8c0.6-1.5,0.9-3.1,1.1-4.7c0.9-0.7,1.9-1.4,2.5-2.3c-1.3-1.4-2.2-3.1-2.5-5&#10;&#9;&#9;c-0.1-0.7-0.1-1.4-0.2-2.1c-0.1-2.3,0.5-4.6,1.6-6.5c-1.5-1.3-2.4-3-3.2-4.7c-0.7-1.6-0.5-3.5-1.3-4.7c-2.2-3.4-3.9-5.3-3.4-9.7&#10;&#9;&#9;c-3.2-0.1-7.8-3.5-8.2-6.9c-2.8-0.1-7.8-2-8.2-5.5c-2.1,0.2-4.1,0.2-6.1-0.2c-1.1-0.8-2.4-1.8-3-2.9c-3.5-7.1,5.3-6.2,9.8-6.5&#10;&#9;&#9;c4.5-0.3,7.8-2.1,11.2-4.9c0.4,0.8,4,0.8,5,1c2.5,0.3,5.1,0.8,7.7,1c3,0.2,8.1,0.8,8.5-2.9C1100.1,541.8,1098.9,540.6,1096.4,541z" transform="matrix(1, 0, 0, 1, 0, 0)"/><path fill="#2B4563" d="M508.3,381.2c-1.1-1.8-5.9-3.3-19-2.6c-13.2,0.7-81.1-0.7-99.8-1.7c-0.3,0-0.6,0-0.9,0&#10;&#9;&#9;c-10.6-6.8-34.4-18.6-41.5-19.9c-6.8-1.2,4.2,12,5.7,21.8c-10.8,1-21,2.3-26.6,3.4c-12.8,2.6-66.2,10.2-91.1,8.8&#10;&#9;&#9;c-41-15.4-61.4-10.6-56.7-9.1c4.8,1.5,26,12.8,32.9,23c6.9,10.2-15.4,27.4-4.4,25.6c11-1.8,26-20.1,30.7-20.5&#10;&#9;&#9;c1.3-0.1,4.3,0,8.8,0.3c0.7,0.8,1.4,1.6,2.3,2.2c3.1,2.1,7.7,3,8.3,7.6c4.5,0,9.4-3,13.7-4.3c1.6-0.5,3.1-0.7,4.7-0.8&#10;&#9;&#9;c9.5,2.1,20.3,5.1,31.6,9.3c23.9,8.7,56.6,11.3,79.1,11.6c-4.4,13.5-14.2,23.8-8,21.8c5.6-1.8,18.7-9.6,30.1-18.2&#10;&#9;&#9;c-1,12.4-7.4,20.5-0.7,15c6.2-5.1,11.9-13.9,15.6-21.9c28.1-6.5,62.7-21.2,63-23.4c0.4-2.6-5.5-2.2-3.7-4.4&#10;&#9;&#9;C484.5,402.8,509.4,383,508.3,381.2z" transform="matrix(1, 0, 0, 1, 0, 0)"/><path fill="#354F68" d="M1196.1,309c-2.4-6.9-8.1-11.3-13.6-15.5c-4.2-3.2-9.9-6-11.2-11.5c-1.2-5.1,1.3-9.9,0.9-14.8&#10;&#9;&#9;c-0.3-4.2-2.4-6.5-4-10.2c-0.7-0.2-2.9-2-4.3-2.6c-2.1-0.8-4-1.1-6.3-1.1c-4.1,0-8.6,2.1-12.7,0.7c-1.8,1-10.8-1.6-13.2-2.3&#10;&#9;&#9;c-4-1.2-6.8-4-9.8-6.7c-7.8-6.8-17.2-11.7-27.7-13.3c-2.8-0.4-9.4-2-11.4,0.6c-1.7,2.2-0.3,6.9-0.6,9.5c-1.2,11.6-7.5,21.9-7,33.6&#10;&#9;&#9;c0.3,7.1-0.3,14.4,1.7,21.3c1.1,3.9,3.1,7.9,6.6,10.7c-3-0.7-10.3-0.1-8.4,3c1.7,2.7,3.3,4,5,5c-0.4,0.1-0.8,0.3-1.2,0.4&#10;&#9;&#9;c-0.4,0.1-0.7,0.2-1.1,0.4c-1.9,0.6-3.8,1.2-5.8,1.7c-4.6,1.2-9.3,2.1-14,2.7c-4.7,0.6-9.5,0.8-14.2,0.7c-3.7-0.1-7.5-0.6-11.2-0.7&#10;&#9;&#9;c-10.9-1.9-23.8-3.8-33.6-0.3c-23.7,8.5-31.3,35.9-36.3,54c1.1,0.3,2.2-0.3,2.5-1.4c4.9-17.7,12.5-42.9,34.5-50.7&#10;&#9;&#9;c10.3-3.7,24.3-1.1,35.6,0.9c1,0.2,1.9,0.3,2.9,0.5c5.8,1,12.1,1.2,18.3,0.7c3.3,0,6.6-0.3,9.8-0.8c6.1-1,12.2-2.5,16.4-6.8&#10;&#9;&#9;c3.8,1.9,5.6,6.4,8.4,5.1c2.1-1,4.6-4.1,5.4-7.5c12.7,7.7,28.1,11.9,43.2,12c15.7,0,32.5-5.5,47.7-0.3c3.5,1.2,9.3,4.6,10.7,0.2&#10;&#9;&#9;C1199.6,321.7,1197.6,313.3,1196.1,309z" transform="matrix(1, 0, 0, 1, 0, 0)"/><path fill="#29425B" d="M924.4,574.1c0,0,0.4-0.2,0-1.6c-0.4-1.6-3.9-6.6-8.9-8c-5-1.4-15.5-1.8-17.2-1.6&#10;&#9;&#9;&#9;c-5.6,0.5-9.1,3.1-9.4,3.8c-0.3,0.6,5.6,1.7,5.2,2.3c-0.4,0.6-1.9,2.5-4,2.5c-2.1,0-8.1-4.8-10.8-3.8c-2.6,1,4.6,3.3,4.5,6&#10;&#9;&#9;&#9;c-0.1,2.7-4.7,6.6-3.9,8c0.8,1.4,6.2-2.7,8.8-4.3c2.6-1.6,4.3-0.4,4.3-0.2c0,0.2-0.7,3.2-2.6,3.7c-2,0.4-0.6,1.8,1.9,1.1&#10;&#9;&#9;&#9;c2.4-0.6,7.1-3.7,8.2-3.8c1,0,1.5,0,1.5,0s-0.1,1.7-0.8,2.1c-0.8,0.4-1.5,1.5-1.7,1.4c-0.2-0.1,0.6,0.4,3.6-0.3&#10;&#9;&#9;&#9;c2.2-0.5,3.1-0.4,4.9-1.3c-0.1,0.6-0.3,1.1-0.8,1.5c-0.2,0.1-0.4,0.4-0.2,0.5c0.1,0,0.1,0,0.2,0c1.1-0.1,2.1-0.5,3-1.1&#10;&#9;&#9;&#9;c0.9-0.6,1.6-1.4,2.3-2.3c0.1-0.2,0.2-0.3,0.4-0.5c3.5-0.4,8.9-1.4,11.5-3.4C925.2,574.2,924.4,574.1,924.4,574.1z" transform="matrix(1, 0, 0, 1, 0, 0)"/><path fill="#29425B" d="M960.1,616.1c0,0,0.4-0.2,0-1.7c-0.5-1.7-4.1-7.1-9.5-8.5c-5.3-1.5-16.6-1.9-18.4-1.7c-6,0.5-9.7,3.4-10,4&#10;&#9;&#9;&#9;c-0.3,0.7,6,1.8,5.6,2.5c-0.4,0.6-2,2.7-4.3,2.7c-2.3-0.1-8.7-5.2-11.5-4c-2.8,1.1,4.9,3.5,4.8,6.5c-0.2,2.9-5,7-4.1,8.5&#10;&#9;&#9;&#9;c0.8,1.5,6.7-2.9,9.4-4.6c2.8-1.7,4.6-0.5,4.6-0.2c0,0.3-0.7,3.5-2.8,3.9c-2.1,0.5-0.6,1.9,2,1.2c2.6-0.7,7.7-4,8.8-4&#10;&#9;&#9;&#9;c1.1-0.1,1.6-0.1,1.6-0.1s-0.1,1.8-0.9,2.3c-0.8,0.5-1.6,1.6-1.8,1.5s0.6,0.4,3.9-0.3c2.3-0.5,3.3-0.4,5.2-1.4&#10;&#9;&#9;&#9;c-0.1,0.6-0.3,1.2-0.8,1.6c-0.2,0.1-0.4,0.4-0.2,0.6c0.1,0,0.1,0,0.2,0c1.2-0.1,2.3-0.5,3.2-1.2c0.9-0.7,1.7-1.5,2.5-2.4&#10;&#9;&#9;&#9;c0.1-0.2,0.3-0.3,0.4-0.5c3.8-0.4,9.5-1.5,12.4-3.6C961,616.2,960.1,616.1,960.1,616.1z" transform="matrix(1, 0, 0, 1, 0, 0)"/><path fill="#29425B" d="M821.2,646.1c0,0,0.4-0.2,0-1.5c-0.4-1.5-3.5-6-8.1-7.3c-4.5-1.2-14.1-1.6-15.6-1.5&#10;&#9;&#9;&#9;c-5.1,0.5-8.2,2.9-8.5,3.4s5.1,1.6,4.8,2.1c-0.4,0.5-1.7,2.3-3.7,2.3s-7.4-4.4-9.8-3.4c-2.4,0.9,4.2,3,4.1,5.5&#10;&#9;&#9;&#9;c-0.1,2.5-4.2,6-3.5,7.3c0.7,1.3,5.7-2.5,8-3.9c2.4-1.4,3.9-0.4,3.9-0.2s-0.6,2.9-2.4,3.3c-1.8,0.4-0.5,1.6,1.7,1&#10;&#9;&#9;&#9;c2.2-0.6,6.5-3.4,7.4-3.4c0.9,0,1.4,0,1.4,0s-0.1,1.5-0.8,1.9c-0.7,0.4-1.4,1.4-1.6,1.3c-0.2-0.1,0.5,0.3,3.3-0.2&#10;&#9;&#9;&#9;c2-0.4,2.8-0.4,4.4-1.2c0,0.5-0.3,1-0.7,1.3c-0.2,0.1-0.4,0.4-0.2,0.5c0.1,0,0.1,0,0.2,0c1-0.1,1.9-0.5,2.7-1&#10;&#9;&#9;&#9;c0.8-0.6,1.5-1.3,2.1-2.1c0.1-0.1,0.2-0.3,0.3-0.4c3.2-0.3,8.1-1.3,10.5-3.1C821.9,646.2,821.2,646.1,821.2,646.1z" transform="matrix(1, 0, 0, 1, 0, 0)"/><path fill="#29425B" d="M858.3,565.1c0,0,0.3-0.2,0-1.3c-0.4-1.3-3.1-5.3-7.2-6.5c-4-1.1-12.5-1.4-13.9-1.3&#10;&#9;&#9;&#9;c-4.5,0.4-7.3,2.5-7.6,3.1c-0.2,0.5,4.6,1.4,4.2,1.9c-0.3,0.5-1.5,2.1-3.2,2c-1.7,0-6.6-3.9-8.7-3.1c-2.1,0.8,3.7,2.7,3.6,4.9&#10;&#9;&#9;&#9;c-0.1,2.2-3.8,5.3-3.1,6.5c0.6,1.1,5-2.2,7.1-3.5c2.1-1.3,3.4-0.4,3.4-0.2c0,0.2-0.6,2.6-2.1,3c-1.6,0.4-0.5,1.4,1.5,0.9&#10;&#9;&#9;&#9;c2-0.5,5.8-3,6.6-3c0.8,0,1.2,0,1.2,0s0,1.4-0.7,1.7c-0.6,0.4-1.2,1.2-1.4,1.2c-0.2-0.1,0.5,0.3,2.9-0.2c1.8-0.4,2.5-0.3,3.9-1.1&#10;&#9;&#9;&#9;c0,0.5-0.3,0.9-0.6,1.2c-0.1,0.1-0.3,0.3-0.2,0.4c0,0,0.1,0,0.2,0c0.9,0,1.7-0.4,2.4-0.9c0.7-0.5,1.3-1.2,1.9-1.8&#10;&#9;&#9;&#9;c0.1-0.1,0.2-0.3,0.3-0.4c2.8-0.3,7.2-1.1,9.3-2.8C859,565.2,858.3,565.1,858.3,565.1z" transform="matrix(1, 0, 0, 1, 0, 0)"/><path fill="#29425B" d="M804.1,589.9c0,0,0.3-0.2,0-1.4c-0.4-1.4-3.3-5.7-7.6-6.8s-13.3-1.5-14.7-1.4c-4.8,0.4-7.8,2.7-8,3.2&#10;&#9;&#9;&#9;s4.8,1.5,4.5,2c-0.3,0.5-1.6,2.2-3.4,2.1c-1.8,0-7-4.1-9.2-3.2c-2.3,0.9,3.9,2.8,3.8,5.2c-0.1,2.3-4,5.6-3.3,6.8&#10;&#9;&#9;&#9;c0.7,1.2,5.3-2.3,7.5-3.7c2.2-1.3,3.6-0.4,3.6-0.2c0,0.2-0.6,2.8-2.3,3.1c-1.7,0.4-0.5,1.5,1.6,1c2.1-0.5,6.1-3.2,7-3.2&#10;&#9;&#9;&#9;c0.9,0,1.3,0,1.3,0s0,1.4-0.7,1.8s-1.3,1.3-1.5,1.2c-0.2-0.1,0.5,0.3,3.1-0.2c1.9-0.4,2.7-0.4,4.2-1.1c0,0.5-0.3,1-0.7,1.3&#10;&#9;&#9;&#9;c-0.2,0.1-0.3,0.3-0.2,0.5c0,0,0.1,0,0.2,0c0.9-0.1,1.8-0.4,2.6-1c0.8-0.5,1.4-1.2,2-1.9c0.1-0.1,0.2-0.3,0.3-0.4&#10;&#9;&#9;&#9;c3-0.3,7.6-1.2,9.9-2.9C804.8,590.1,804.1,589.9,804.1,589.9z" transform="matrix(1, 0, 0, 1, 0, 0)"/><path fill="#29425B" d="M815.8,564.2c0,0,0.3-0.2,0-1.4c-0.4-1.4-3.3-5.7-7.6-6.8c-4.3-1.2-13.3-1.5-14.7-1.4&#10;&#9;&#9;&#9;c-4.8,0.4-7.8,2.7-8,3.2c-0.3,0.5,4.8,1.5,4.5,2s-1.6,2.2-3.4,2.1c-1.8,0-7-4.1-9.2-3.2c-2.3,0.9,3.9,2.8,3.8,5.2&#10;&#9;&#9;&#9;c-0.1,2.3-4,5.6-3.3,6.8c0.7,1.2,5.3-2.3,7.5-3.7c2.2-1.3,3.6-0.4,3.6-0.2c0,0.2-0.6,2.8-2.3,3.1s-0.5,1.5,1.6,1&#10;&#9;&#9;&#9;c2.1-0.5,6.1-3.2,7-3.2c0.9,0,1.3,0,1.3,0s0,1.4-0.7,1.8c-0.7,0.4-1.3,1.3-1.5,1.2c-0.2-0.1,0.5,0.3,3.1-0.2&#10;&#9;&#9;&#9;c1.9-0.4,2.7-0.4,4.2-1.1c0,0.5-0.3,1-0.7,1.3c-0.2,0.1-0.3,0.3-0.2,0.5c0,0,0.1,0,0.2,0c0.9-0.1,1.8-0.4,2.6-1&#10;&#9;&#9;&#9;c0.8-0.5,1.4-1.2,2-1.9c0.1-0.1,0.2-0.3,0.3-0.4c3-0.3,7.6-1.2,9.9-2.9C816.5,564.3,815.8,564.2,815.8,564.2z" transform="matrix(1, 0, 0, 1, 0, 0)"/><path fill="#29425B" d="M740.2,592.8c0,0,0.3-0.2,0-1.4c-0.4-1.4-3.3-5.7-7.6-6.8c-4.3-1.2-13.3-1.5-14.7-1.4&#10;&#9;&#9;&#9;c-4.8,0.4-7.8,2.7-8,3.2c-0.3,0.5,4.8,1.5,4.5,2s-1.6,2.2-3.4,2.1c-1.8,0-7-4.1-9.2-3.2c-2.3,0.9,3.9,2.8,3.8,5.2&#10;&#9;&#9;&#9;c-0.1,2.3-4,5.6-3.3,6.8c0.7,1.2,5.3-2.3,7.5-3.7c2.2-1.3,3.6-0.4,3.6-0.2c0,0.2-0.6,2.8-2.3,3.1c-1.7,0.4-0.5,1.5,1.6,1&#10;&#9;&#9;&#9;c2.1-0.5,6.1-3.2,7-3.2c0.9,0,1.3,0,1.3,0s0,1.4-0.7,1.8c-0.7,0.4-1.3,1.3-1.5,1.2c-0.2-0.1,0.5,0.3,3.1-0.2&#10;&#9;&#9;&#9;c1.9-0.4,2.7-0.4,4.2-1.1c0,0.5-0.3,1-0.7,1.3c-0.2,0.1-0.3,0.3-0.2,0.5c0,0,0.1,0,0.2,0c0.9-0.1,1.8-0.4,2.6-1&#10;&#9;&#9;&#9;c0.8-0.5,1.4-1.2,2-1.9c0.1-0.1,0.2-0.3,0.3-0.4c3-0.3,7.6-1.2,9.9-2.9C740.8,593,740.2,592.8,740.2,592.8z" transform="matrix(1, 0, 0, 1, 0, 0)"/><path fill="#29425B" d="M776.5,624.1c0,0,0.3-0.2,0-1.4c-0.4-1.4-3.3-5.7-7.6-6.8s-13.3-1.5-14.7-1.4c-4.8,0.4-7.8,2.7-8,3.2&#10;&#9;&#9;&#9;c-0.3,0.5,4.8,1.5,4.5,2s-1.6,2.2-3.4,2.1c-1.8,0-7-4.1-9.2-3.2s3.9,2.8,3.8,5.2c-0.1,2.3-4,5.6-3.3,6.8c0.7,1.2,5.3-2.3,7.5-3.7&#10;&#9;&#9;&#9;c2.2-1.3,3.6-0.4,3.6-0.2c0,0.2-0.6,2.8-2.3,3.1c-1.7,0.4-0.5,1.5,1.6,1c2.1-0.5,6.1-3.2,7-3.2c0.9,0,1.3,0,1.3,0s0,1.4-0.7,1.8&#10;&#9;&#9;&#9;c-0.7,0.4-1.3,1.3-1.5,1.2c-0.2-0.1,0.5,0.3,3.1-0.2c1.9-0.4,2.7-0.4,4.2-1.1c0,0.5-0.3,1-0.7,1.3c-0.2,0.1-0.3,0.3-0.2,0.5&#10;&#9;&#9;&#9;c0,0,0.1,0,0.2,0c0.9-0.1,1.8-0.4,2.6-1c0.8-0.5,1.4-1.2,2-1.9c0.1-0.1,0.2-0.3,0.3-0.4c3-0.3,7.6-1.2,9.9-2.9&#10;&#9;&#9;&#9;C777.2,624.2,776.5,624.1,776.5,624.1z" transform="matrix(1, 0, 0, 1, 0, 0)"/><path fill="#29425B" d="M855.6,616.9c0,0,0.3-0.2,0-1.4c-0.4-1.4-3.3-5.7-7.6-6.8s-13.3-1.5-14.7-1.4c-4.8,0.4-7.8,2.7-8,3.2&#10;&#9;&#9;&#9;c-0.3,0.5,4.8,1.5,4.5,2s-1.6,2.2-3.4,2.1c-1.8,0-7-4.1-9.2-3.2c-2.3,0.9,3.9,2.8,3.8,5.2c-0.1,2.3-4,5.6-3.3,6.8s5.3-2.3,7.5-3.7&#10;&#9;&#9;&#9;s3.6-0.4,3.6-0.2c0,0.2-0.6,2.8-2.3,3.1c-1.7,0.4-0.5,1.5,1.6,1c2.1-0.5,6.1-3.2,7-3.2c0.9,0,1.3,0,1.3,0s0,1.4-0.7,1.8&#10;&#9;&#9;&#9;c-0.7,0.4-1.3,1.3-1.5,1.2s0.5,0.3,3.1-0.2c1.9-0.4,2.7-0.4,4.2-1.1c0,0.5-0.3,1-0.7,1.3c-0.2,0.1-0.3,0.3-0.2,0.5&#10;&#9;&#9;&#9;c0,0,0.1,0,0.2,0c0.9-0.1,1.8-0.4,2.6-1c0.8-0.5,1.4-1.2,2-1.9c0.1-0.1,0.2-0.3,0.3-0.4c3-0.3,7.6-1.2,9.9-2.9&#10;&#9;&#9;&#9;C856.3,617.1,855.6,616.9,855.6,616.9z" transform="matrix(1, 0, 0, 1, 0, 0)"/><path fill="#29425B" d="M700.9,626c0,0,0.3-0.2,0-1.3c-0.3-1.3-3-5.2-7-6.3c-3.9-1.1-12.2-1.4-13.5-1.3c-4.4,0.4-7.1,2.5-7.3,3&#10;&#9;&#9;&#9;c-0.2,0.5,4.4,1.3,4.1,1.8c-0.3,0.5-1.5,2-3.2,2c-1.7,0-6.4-3.8-8.5-3c-2.1,0.8,3.6,2.6,3.5,4.7c-0.1,2.2-3.7,5.1-3,6.3&#10;&#9;&#9;&#9;c0.6,1.1,4.9-2.2,6.9-3.4c2-1.2,3.3-0.3,3.3-0.2c0,0.2-0.5,2.5-2.1,2.9c-1.5,0.3-0.5,1.4,1.5,0.9c1.9-0.5,5.6-2.9,6.4-3&#10;&#9;&#9;&#9;c0.8,0,1.2,0,1.2,0s0,1.3-0.7,1.7c-0.6,0.3-1.2,1.2-1.3,1.1c-0.2-0.1,0.5,0.3,2.8-0.2c1.7-0.4,2.4-0.3,3.8-1.1&#10;&#9;&#9;&#9;c0,0.4-0.2,0.9-0.6,1.2c-0.1,0.1-0.3,0.3-0.2,0.4c0,0,0.1,0,0.2,0c0.8,0,1.7-0.4,2.4-0.9c0.7-0.5,1.3-1.1,1.8-1.8&#10;&#9;&#9;&#9;c0.1-0.1,0.2-0.2,0.3-0.4c2.8-0.3,7-1.1,9.1-2.7C701.5,626.1,700.9,626,700.9,626z" transform="matrix(1, 0, 0, 1, 0, 0)"/><path fill="#29425B" d="M850.3,589c0,0,0.2-0.1,0-1c-0.3-1-2.4-4.1-5.5-4.9c-3.1-0.8-9.6-1.1-10.6-1c-3.5,0.3-5.6,1.9-5.8,2.3&#10;&#9;&#9;&#9;c-0.2,0.4,3.5,1.1,3.2,1.4c-0.2,0.4-1.2,1.6-2.5,1.5c-1.3,0-5-3-6.7-2.3s2.9,2,2.8,3.7s-2.9,4.1-2.4,4.9s3.9-1.7,5.5-2.7&#10;&#9;&#9;&#9;c1.6-1,2.6-0.3,2.6-0.1s-0.4,2-1.6,2.3c-1.2,0.3-0.4,1.1,1.2,0.7c1.5-0.4,4.4-2.3,5.1-2.3c0.6,0,0.9,0,0.9,0s0,1-0.5,1.3&#10;&#9;&#9;&#9;s-0.9,0.9-1.1,0.9c-0.1,0,0.4,0.2,2.2-0.2c1.3-0.3,1.9-0.3,3-0.8c0,0.4-0.2,0.7-0.5,0.9c-0.1,0.1-0.3,0.3-0.1,0.3c0,0,0.1,0,0.1,0&#10;&#9;&#9;&#9;c0.7,0,1.3-0.3,1.9-0.7s1-0.9,1.4-1.4c0.1-0.1,0.2-0.2,0.2-0.3c2.2-0.2,5.5-0.9,7.1-2.1C850.7,589.1,850.3,589,850.3,589z" transform="matrix(1, 0, 0, 1, 0, 0)"/><path fill="#29425B" d="M900.8,637.5c0,0,0.4-0.2,0.1-1.6c-0.4-1.6-3.5-6.6-8.3-8.1c-4.8-1.5-15.1-2.3-16.7-2.3&#10;&#9;&#9;&#9;c-5.5,0.3-9,2.7-9.3,3.3c-0.3,0.6,5.4,1.9,5,2.4c-0.4,0.6-2,2.4-4,2.3c-2.1-0.1-7.7-5-10.3-4.1c-2.6,0.9,4.4,3.4,4.1,6.1&#10;&#9;&#9;&#9;c-0.3,2.7-4.8,6.2-4.1,7.6c0.7,1.4,6.2-2.4,8.8-3.8c2.6-1.4,4.2-0.3,4.2,0c0,0.2-0.8,3.1-2.7,3.5c-1.9,0.4-0.6,1.7,1.8,1.2&#10;&#9;&#9;&#9;c2.4-0.5,7.1-3.3,8.1-3.3s1.5,0,1.5,0s-0.1,1.6-0.9,2c-0.8,0.4-1.5,1.4-1.7,1.3c-0.2-0.1,0.6,0.4,3.5-0.1c2.1-0.4,3.1-0.3,4.8-1.1&#10;&#9;&#9;&#9;c-0.1,0.6-0.4,1.1-0.8,1.4c-0.2,0.1-0.4,0.4-0.2,0.5c0.1,0,0.1,0,0.2,0c1.1,0,2.1-0.4,3-1c0.9-0.6,1.6-1.3,2.3-2.1&#10;&#9;&#9;&#9;c0.1-0.1,0.3-0.3,0.4-0.5c3.4-0.2,8.7-1,11.4-2.9C901.6,637.7,900.8,637.5,900.8,637.5z" transform="matrix(1, 0, 0, 1, 0, 0)"/><path fill="#29425B" d="M908.8,606.9c0,0,0.4-0.2,0-1.7c-0.5-1.7-4.2-7.1-9.5-8.6c-5.4-1.5-16.7-1.9-18.5-1.7&#10;&#9;&#9;&#9;c-6,0.5-9.7,3.4-10,4.1c-0.3,0.7,6.1,1.8,5.6,2.5c-0.4,0.6-2.1,2.7-4.3,2.7c-2.3-0.1-8.7-5.2-11.6-4.1c-2.8,1.1,4.9,3.5,4.8,6.5&#10;&#9;&#9;&#9;c-0.2,2.9-5,7-4.2,8.6c0.8,1.5,6.7-2.9,9.5-4.6c2.8-1.7,4.6-0.5,4.6-0.2s-0.7,3.5-2.8,3.9c-2.1,0.5-0.6,1.9,2,1.2&#10;&#9;&#9;&#9;c2.6-0.7,7.7-4,8.8-4c1.1-0.1,1.6-0.1,1.6-0.1s-0.1,1.8-0.9,2.3c-0.8,0.5-1.6,1.6-1.8,1.5c-0.2-0.1,0.6,0.4,3.9-0.3&#10;&#9;&#9;&#9;c2.3-0.5,3.3-0.4,5.2-1.4c-0.1,0.6-0.3,1.2-0.8,1.6c-0.2,0.1-0.4,0.4-0.2,0.6c0.1,0,0.1,0,0.2,0c1.2-0.1,2.3-0.5,3.2-1.2&#10;&#9;&#9;&#9;c1-0.7,1.8-1.5,2.5-2.4c0.1-0.2,0.3-0.3,0.4-0.5c3.8-0.4,9.5-1.5,12.4-3.7C909.7,607.1,908.8,606.9,908.8,606.9z" transform="matrix(1, 0, 0, 1, 0, 0)"/><path fill="#1C3151" d="M316,736.2c2.6-1.7,5-3.6,7.2-5.7c0.4-0.4-0.2-1.1-0.7-0.7c-5,4.9-11.1,8.5-17.7,10.5&#10;&#9;&#9;&#9;c-2.1,0.6-4.1,1-6.2,1.4c-0.8-0.5-1.6-0.9-2.4-1.4c0.9-0.6,1.8-1.2,2.6-1.8c3.7-2.6,7.2-5.3,10.7-8.1c0.5-0.4-0.2-1.1-0.7-0.7&#10;&#9;&#9;&#9;c-0.1,0.1-0.1,0.1-0.2,0.2c0.1-0.3-0.1-0.6-0.5-0.6c-5.9-0.8-12,1.4-17.3,3.7c-4.9,2.1-9.5,4.9-13.7,8.2c-0.5-0.1-0.9-0.2-1.4-0.3&#10;&#9;&#9;&#9;c-0.4-0.1-0.9-0.2-1.3-0.2c6.4-8.6,15.5-14.9,24.9-19.8c0.6-0.3,0.1-1.1-0.5-0.8c-9.7,5.1-19,11.6-25.5,20.5&#10;&#9;&#9;&#9;c-0.3,0-0.5-0.1-0.8-0.1c1.4-3.2,3.4-6.1,5.3-8.9c2.6-3.9,5.5-7.7,9.4-10.4c1.1-0.8,0.1-2.6-1.1-1.8c-4.1,2.8-7.2,6.7-10,10.9&#10;&#9;&#9;&#9;c-2.1,3.2-4.4,6.5-5.9,10.1c-0.5,0-1.1,0-1.6,0c0-6.6,1.6-13.2,4.7-19.2c0.6-1.2-1.2-2.3-1.8-1.1c-3.1,6-4.8,12.6-5,19.4&#10;&#9;&#9;&#9;c-0.1-2-0.2-4.1-0.1-6.1c0.1-2,0.2-4.1,0.4-6.1c0.2-2,0.2-4.1,1.3-5.8c0.7-1.2-1.1-2.2-1.8-1.1c-1.1,1.7-1.3,3.8-1.5,5.7&#10;&#9;&#9;&#9;c-0.2,2.3-0.4,4.6-0.5,6.8c-0.1,2.6-0.1,5.2,0.2,7.8c-0.7,0.1-1.4,0.3-2.1,0.5c0-0.1-0.1-0.3-0.1-0.4c-2.8-4.9-5.8-10.1-5.5-16&#10;&#9;&#9;&#9;c0.1-1.4-2.1-1.4-2.1,0c-0.3,6.3,2.7,11.8,5.8,17.1c-0.3,0.1-0.6,0.3-1,0.4c-0.7-0.6-1.5-1.2-2.3-1.8c-1.7-1.2-3.5-2.3-5.3-3.3&#10;&#9;&#9;&#9;c-0.6-0.3-1,0.5-0.5,0.8c1.6,0.9,3.2,1.8,4.7,2.9c0.8,0.5,1.6,1.1,2.4,1.8c-2.8,1.4-5.3,3.5-7,6.3c-0.1,0.2-0.2,0.4-0.3,0.6&#10;&#9;&#9;&#9;c-1-2.8-1.6-5.8-1.8-8.8c0-0.5-0.8-0.5-0.8,0c0.3,3.3,1,6.6,2.1,9.7c0,0,0,0.1-0.1,0.1c-0.9,0-1.8,0.3-2.5,0.7&#10;&#9;&#9;&#9;c-1.1-1.6-1.9-3.4-2.5-5.1c-1-3-1.4-6.2-1.2-9.4c0.1-0.6-0.9-0.6-1,0c-0.3,3.5,0.2,7,1.4,10.3c0.6,1.6,1.4,3.3,2.5,4.8&#10;&#9;&#9;&#9;c-0.6,0.5-1,1.2-1.3,1.9c-0.5-0.4-0.9-0.8-1.3-1.2c-0.4-0.4-1.1,0.2-0.7,0.7c0.5,0.6,1.1,1.1,1.7,1.6c-0.1,0.3-0.1,0.6-0.1,0.9&#10;&#9;&#9;&#9;c0,0.5,0.1,0.9,0.2,1.3c-0.6,0.6-1.2,1.4-1.7,2.1c-1.2-0.3-2.4-0.5-3.7-0.7c-0.6-0.1-0.9,0.8-0.3,0.9c1.1,0.2,2.2,0.4,3.4,0.6&#10;&#9;&#9;&#9;c-0.1,0.1-0.1,0.2-0.2,0.3c-2.4-0.2-4.8,0.8-6.4,2.6c-0.4,0.5,0.3,1.2,0.7,0.7c1.3-1.5,3.2-2.4,5.1-2.4c-0.3,0.5-0.6,1-0.8,1.5&#10;&#9;&#9;&#9;c-0.3,0.5-0.5,1.1-0.5,1.7c0,1.1,1.1,1.9,2,2.6c3.7,2.4,8.8,2.1,12.4,4.6c1,0.7,2.2,1.2,3.3,1.6c-0.2,2.5,0,5.1,0.5,7.6&#10;&#9;&#9;&#9;c0.3,1.3,2.3,0.8,2.1-0.6c-0.4-2.2-0.6-4.3-0.5-6.5c0.2,0,0.3,0,0.5,0.1c0.2,0.5,0.5,1,0.7,1.5c1.2,2.3,2.6,4.4,4.2,6.4&#10;&#9;&#9;&#9;c0.2,0.3,0.6,0.1,0.6-0.2c0.7,1.1,1.4,2.1,2.3,3c0.8,0.8,2-0.4,1.2-1.2c-2.4-2.6-3.9-5.8-4.9-9.1c0.1,0,0.2,0,0.3,0&#10;&#9;&#9;&#9;c0.8,1.5,1.8,2.9,2.8,4.1c2,2.7,4.3,5.2,6.9,7.4c0.4,0.3,0.9-0.2,0.5-0.5c-2.5-2.2-4.8-4.6-6.8-7.3c-0.8-1.1-1.7-2.4-2.5-3.7&#10;&#9;&#9;&#9;c0.1,0,0.2,0,0.4,0c0.6,1,1.3,1.9,2,2.8c1.9,2.6,4.1,4.9,7,6.4c0.8,0.4,1.5-0.8,0.7-1.2c-2.5-1.4-4.6-3.4-6.3-5.7&#10;&#9;&#9;&#9;c-0.3-0.4-0.6-0.8-0.8-1.1c2.1,1.3,4.4,2.4,6.8,3.1c-0.2-0.2-0.3-0.4-0.2-0.7c0.1-0.3,0.3-0.5,0.5-0.6c1.9,1.8,3.9,3.5,5.9,5.2&#10;&#9;&#9;&#9;c0.7,0.5,1.6-0.4,1-1c-1.6-1.3-3.1-2.6-4.6-3.9c3.8,1.3,7.6,2.9,11.6,2.5c2.9,1.8,5.8,3.3,8.8,4.9c0.8,0.4,1.5-0.8,0.7-1.2&#10;&#9;&#9;&#9;c-3.3-1.8-6.6-3.5-9.8-5.5c0-0.1,0.1-0.1,0.2-0.2c0.6-0.5,1.5-0.6,2.3-0.6c-0.6-1.7,0-3.8,1.4-5c-1.3-0.2-2.5-0.8-3.6-1.5&#10;&#9;&#9;&#9;c0.3-0.1,0.6-0.3,0.9-0.5c5.9,3.3,12.1,6.2,18.5,8.4c0.8,0.3,1.2-1,0.4-1.3c-6.1-2.1-11.9-4.8-17.5-7.9c0.2-0.1,0.4-0.2,0.5-0.4&#10;&#9;&#9;&#9;c2.1,0.5,4.2,0.8,6.3,0.8c0.6-0.6,1.2-1.3,1.6-2.1c3.9,1.3,7.9,2.1,12,2.6c0.9,0.1,0.9-1.3,0-1.4c-3.9-0.5-7.7-1.3-11.4-2.5&#10;&#9;&#9;&#9;c0-0.1,0.1-0.2,0.1-0.4c0.3-0.9,0.5-2,1-2.8c2.6,0.7,5.2,1.2,7.8,1.7c0,0,0,0,0,0c0.2,0.2,0.4,0.4,0.7,0.5c0.3,0.1,0.7,0.1,1,0&#10;&#9;&#9;&#9;c0.2,0,0.5-0.1,0.7-0.2c1.5,0.2,3,0.4,4.5,0.6c0.6,0.1,0.6-0.9,0-1c-1-0.1-1.9-0.3-2.9-0.4c1.4-0.9,2.6-2.3,3.5-3.8&#10;&#9;&#9;&#9;c3.5-5.6,4.3-13.3,0.6-18.8c-0.7-1.1-1.8-2.1-3.1-2.1c-0.7,0-1.4,0.4-2,0.8c-0.8,0.5-1.7,1.1-2.5,1.6c-0.1,0-0.2,0-0.4,0&#10;&#9;&#9;&#9;c-3,1.3-6,2.5-9.1,3.5c0.1-0.5,0.2-1,0.3-1.4c0-0.1,0-0.3,0-0.4c-0.1-0.2-0.2-0.2-0.4-0.3c-0.8-0.4-1.5-0.8-2.3-1.2&#10;&#9;&#9;&#9;c0.4-0.1,0.7-0.1,1.1-0.2C306.3,741.2,311.4,739.1,316,736.2z M266.9,780.2c-1.2-1.5-2.3-3.1-3.2-4.8c-0.3-0.6-0.7-1.2-1-1.9&#10;&#9;&#9;&#9;c0.5,0.1,1.1,0.1,1.6,0.1C264.9,775.9,265.8,778.2,266.9,780.2z M283.8,743.4c-0.2-0.1-0.3-0.2-0.5-0.2c0.3-0.2,0.7-0.4,1-0.6&#10;&#9;&#9;&#9;C284.2,742.9,284,743.2,283.8,743.4z M292.3,737.5c-0.2-0.2-0.5-0.4-0.8-0.4c-0.2,0-0.4,0.1-0.5,0.1c-0.3,0.1-0.5,0.2-0.8,0.3&#10;&#9;&#9;&#9;c0-0.3-0.4-0.6-0.7-0.3c-0.5,0.6-1.1,1.2-1.7,1.7c-0.6,0.4-1.1,0.9-1.6,1.3c-1.2,0.9-2.5,1.7-3.8,2.4c-0.7-0.3-1.5-0.7-2.3-0.9&#10;&#9;&#9;&#9;c-0.1,0-0.1,0-0.2-0.1c4.5-3,9.3-5.7,14.2-8c0.5-0.2,0.1-0.9-0.4-0.7c-5.2,2.4-10.1,5.2-14.8,8.4c-0.2-0.1-0.5-0.1-0.7-0.2&#10;&#9;&#9;&#9;c3.9-3,8.2-5.5,12.7-7.5c5.3-2.3,11.3-4.5,17.2-3.7c0,0,0,0,0,0c-3.3,2.6-6.5,5.1-9.9,7.5c-1,0.7-2,1.4-3,2&#10;&#9;&#9;&#9;C294.3,738.9,293.3,738.2,292.3,737.5z M303.8,762.3c-0.8-1.1-1.9-1.9-3.1-2.5c0.1-0.2,0.3-0.3,0.5-0.4c0.3-0.2,0.7-0.4,1.1-0.5&#10;&#9;&#9;&#9;c1.3,0.3,2.6,0.5,3.9,0.7c0.3,0.2,0.6,0.4,0.9,0.6c1.3,1,2.2,2.4,3.2,3.6C308.1,763.4,305.9,762.9,303.8,762.3z M301.9,746.9&#10;&#9;&#9;&#9;c2.4-0.8,4.8-1.7,7.2-2.6c-0.5,0.4-1,0.8-1.5,1.3c-2,1.8-4.5,4.4-7.1,3.9c-0.1,0-0.1,0-0.2,0C300.9,748.7,301.5,747.8,301.9,746.9&#10;&#9;&#9;&#9;z" transform="matrix(1, 0, 0, 1, 0, 0)"/><path fill="#1C3151" d="M277.5,778.2c-0.2,0-0.3-0.1-0.5-0.1C277.1,778.2,277.3,778.3,277.5,778.2z" transform="matrix(1, 0, 0, 1, 0, 0)"/><path fill="#0E111B" d="M531.9,764.7c-0.3-1.2-2.1-0.7-1.8,0.5c0.4,1.4,0.3,2.7,0,4.1c0-3.3-0.3-6.6-0.7-9.8&#10;&#9;&#9;c-0.2-1.2-2-0.7-1.8,0.5c0.4,3.3,0.7,6.6,0.6,9.9c0,1.9,0,3.8-0.2,5.7c-0.2,0.6-0.3,1.2-0.4,1.8c0,0.2,0,0.3,0.1,0.5&#10;&#9;&#9;c-0.1,0.5-0.2,1-0.4,1.5c-0.5,1.8-1.5,3.2-2.6,4.5c1.6-5.3,2.2-10.9,1.4-16.5c-0.3-1.7-2.9-1-2.6,0.7c0.7,4.7,0.3,9.2-0.9,13.5&#10;&#9;&#9;c-0.4-2.1-1-4.3-1.5-6.4c-1-4.3-0.8-8.7-0.6-13c0.1-1.2-1.8-1.2-1.9,0c-0.3,4.2-0.4,8.4,0.4,12.6c0.8,3.9,2.2,7.6,1.9,11.6&#10;&#9;&#9;c-1.5,3.8-3.6,7.4-5.9,10.9c0.4-14.6,2.9-29.3,0.3-43.8c-0.2-1-1.7-0.6-1.6,0.4c1.7,9.5,1.2,19,0.6,28.6c-0.2-1.1-0.4-2.2-0.6-3.2&#10;&#9;&#9;c-1-4.5-2.4-9.1-1.1-13.6c0.3-1-1.3-1.4-1.6-0.4c-1.2,4.3-0.2,8.7,0.8,13c1.1,4.8,1.7,9.6,1.5,14.5c0,0.3,0.1,0.5,0.3,0.6&#10;&#9;&#9;c-0.1,2.1-0.2,4.3-0.2,6.4c-1.4,1.9-2.8,3.8-4.2,5.5c1.9-6.1,2.2-12.6,0.8-18.9c-0.2-1-1.8-0.6-1.6,0.4c1.6,7.4,0.8,15.2-2.4,22.1&#10;&#9;&#9;c0,0.1-0.1,0.2-0.1,0.3c-1.3,1.6-2.6,3.2-3.8,4.8c-0.2-1.8-0.4-3.6-0.2-5.4c0.2-2.1,1.1-3.9,2-5.7c1.7-3.2,3.6-6.4,2.9-10.2&#10;&#9;&#9;c-0.3-1.5-0.8-2.9-1.4-4.3c3.7-8.9,3.8-18.8,3.7-28.3c0-1-1.6-1-1.6,0c0.1,8.6,0.1,17.5-2.8,25.6c1.2-9,0.9-18.1-1-26.9&#10;&#9;&#9;c-0.2-1.2-2.1-0.7-1.8,0.5c1.6,7.5,2,15.3,1.3,23c-0.3-0.8-0.5-1.7-0.8-2.5c-1.4-4.5-2.4-9.1-3.3-13.7c-0.2-1-1.7-0.6-1.6,0.4&#10;&#9;&#9;c0.8,4.5,1.9,9,3.2,13.4c0.6,2,1.3,4,2,6c-0.3,1.9-0.6,3.7-1,5.5c-2.2,10-7,19.8-4.7,30.2c-0.1,0.2-0.2,0.4-0.3,0.7&#10;&#9;&#9;c-0.3,0.8-0.7,1.5-1,2.3c-1.4-6.4-2.5-12.9-1.7-19.5c0.8-7.1,3-14.2,0.9-21.3c-0.3-1-1.8-0.6-1.6,0.4c1.7,5.8,0.4,11.7-0.5,17.5&#10;&#9;&#9;c-0.8-2.4-1.7-4.8-1.6-7.3c0-1-1.6-1-1.6,0c-0.1,4.1,2.3,7.6,2.6,11.6c0,0.1,0,0.1,0,0.2c-0.7,7.2,0.8,14.3,2.4,21.3&#10;&#9;&#9;c-0.1,0.5-0.3,0.9-0.4,1.4c-1.3-6.4-4.4-12.4-4.4-18.9c0-1-1.6-1-1.6,0c0,6.6,3.2,12.7,4.4,19.1c-1.8-4.3-4.1-8.5-5.6-12.8&#10;&#9;&#9;c-0.7-1.9-1.2-3.8-1.7-5.7c2-4.8,3.8-9.7,3.1-14.9c1.5-2.7,3-5.5,3.9-8.5c0.8-2.7,0.8-5.4,0.4-8.1c0.9-3.6,1.3-7.3,1-11&#10;&#9;&#9;c-0.1-1-1.7-1-1.6,0c0.2,2.5,0.1,5-0.3,7.4c-0.4-1.1-0.8-2.2-1.2-3.2c-0.3-2.3-0.8-4.5-1.6-6.7c-0.3-1-1.9-0.6-1.6,0.4&#10;&#9;&#9;c0,0,0,0.1,0,0.1c-0.6-0.4-1.6,0.3-1.2,1.1c0.9,1.8,1.9,3.6,2.7,5.4c0.5,4.2,0.1,8.5-1.3,12.5c-0.3,1-0.7,1.9-1.2,2.9&#10;&#9;&#9;c-0.2-0.6-0.3-1.3-0.5-1.9c-0.7-3.2-1.1-6.5-1.3-9.8c0-0.8-1.1-1-1.5-0.5c0.1-0.9,0.2-1.8,0.3-2.8c0.2-1.7-2.5-1.7-2.7,0&#10;&#9;&#9;c-0.5,4.8-0.8,9.6-0.8,14.5c-0.2-0.9-0.1-2.1-0.1-2.7c0-1.5,0.1-3,0-4.5c-0.1-2.8-1.2-5.4-0.9-8.2c0.1-1-1.5-1-1.6,0&#10;&#9;&#9;c-0.2,1.7,0.1,3.4,0.5,5.1c0.4,2.1,0.5,4.1,0.4,6.2c0,2-0.4,5.6,1.7,6.6c0.1,3.5,0.3,6.9,0.7,10.4c0.6,4.4,1.4,8.8,2.7,13.1&#10;&#9;&#9;c1.3,4.5,3.2,8.7,5.2,12.9c2.3,4.8,4.6,10,3.7,15.5c-0.1,0.5,0.1,1,0.5,1.3c0.1,8,1.7,15.8,3.2,23.6c0.3,1.7,2.9,1,2.6-0.7&#10;&#9;&#9;c-2.7-13.9-5.7-29.4,0.6-42.8c3-6.3,7.9-11.4,12.2-16.8c4.2-5.2,8.1-10.7,10.9-16.9c0.2-0.4,0.4-0.9,0.6-1.3&#10;&#9;&#9;c0.8-0.8,1.7-1.6,2.5-2.5c1.9-1.9,3.2-4.1,3.8-6.8c0.2-1,0.4-2,0.5-3C530.9,772.2,533,768.7,531.9,764.7z M490.9,777.7&#10;&#9;&#9;c0,0.2,0.1,0.3,0.1,0.5c0.1,0.3,0.1,0.7,0.2,1c-0.2,0.9-0.5,1.9-0.9,2.8C490.7,780.5,490.8,779.1,490.9,777.7z M491,784.7&#10;&#9;&#9;c0.2-0.4,0.3-0.7,0.4-1.1c-0.2,2.1-0.8,4.2-1.7,6.3c-0.5,1.1-1.1,2.2-1.6,3.3c-0.1-0.6-0.3-1.1-0.5-1.7&#10;&#9;&#9;C488.9,789.3,490,787,491,784.7z M482.9,788.8c0-3.9,0.1-7.8,0.4-11.8c0.2,2.6,0.5,5.1,1,7.7c0.4,1.8,0.8,3.6,1.3,5.4&#10;&#9;&#9;c-0.9,1.7-1.8,3.3-2.5,5.1C483,793.1,482.9,791,482.9,788.8z M483.8,801.8c-0.1-0.7-0.2-1.3-0.3-2c0-0.4,0.1-0.8,0.2-1.2&#10;&#9;&#9;c0.9-1.7,1.9-3.4,2.8-5c0.2,0.6,0.3,1.2,0.4,1.9c-0.9,1.7-1.8,3.4-2.6,5.1C484.2,801,484,801.4,483.8,801.8z M484.4,805.3&#10;&#9;&#9;c0.3-2.4,1.7-4.8,2.8-6.9c0,1.1-0.1,2.3-0.3,3.5c-0.4,2.1-1.1,4.1-1.9,6C484.7,807.1,484.6,806.2,484.4,805.3z M500.8,815.7&#10;&#9;&#9;c-0.7,1.1-1.5,2.1-2.1,3.2c-1.1-9.1,2.9-18.1,5-26.9c0.1-0.2,0.2-0.5,0.2-0.7c0.1-0.3,0.1-0.5,0.2-0.8c0.2,0,0.4-0.1,0.6-0.3&#10;&#9;&#9;c0.3,0.9,0.6,1.8,0.7,2.8c0.6,4-2.2,7.4-3.8,10.9C499.9,807.9,500.1,811.7,500.8,815.7z" transform="matrix(1, 0, 0, 1, 0, 0)"/><path fill="#1C3151" d="M424.6,665.3c-1.1-6.6,8.5-14,5.2-14.7c-3.3-0.7-16.9,11.4-19.1,11.4s-14.7-0.7-19.1-2.2&#10;&#9;&#9;c-0.7-0.2-1.6-0.6-2.8-1.1c1.7-2.1,4.3-3.6,4.1-4c-0.4-0.7-15.8-8.6-16.7-8.5c-0.8,0.2-4.9,2.5-7.9,4.6c-2.2-0.6-4.6-1.2-7-1.6&#10;&#9;&#9;c0.4-0.9,0.8-1.9,1.2-2.8c-2.8-0.2-5.6-0.6-8.4-1.1c-0.6-0.1-1.2-0.2-1.7-0.6c-0.5-0.4-0.7-1.1-0.4-1.6c-2.6,0.9-5.3,1.5-8.1,1.9&#10;&#9;&#9;c-0.6,0.1-1.2,0.1-1.8-0.1c-0.6-0.2-1-0.8-0.8-1.4c-1.8,0.7-3.5,1.5-5.3,2.2c-0.6,0.2-1.2,0.5-1.8,0.3c-0.6-0.1-1.1-0.8-0.8-1.4&#10;&#9;&#9;c-3.9,2.7-7.3,5.9-10.4,9.5c-11.6,3.8-22.2,8.5-27.1,11.2c-7.5,4.2-2.9,7.7,4.5,10.7c7.5,2.9,38.2,9.6,60.3,9.2&#10;&#9;&#9;c9-0.2,16.5-2.4,22.4-5.1c5.5,1,13.3,1.4,14.4,1.4c1.1,0,1.6-5.2-2.6-8.4c2-1.4,3.5-2.6,4.4-3c3.7-1.8,9.6-0.7,14.7,0.7&#10;&#9;&#9;c9.2,9.1,19.5,9.9,19.5,9.9S425.7,671.9,424.6,665.3z" transform="matrix(1, 0, 0, 1, 0, 0)"/><path fill="#344F68" d="M418.6,245c0.3-1.4,10.3-9.9,23.1-11.5c1.7-0.2,3.4-0.2,5.2-0.2c1.5-1.2,3.4-2.3,4.3-2.5&#10;&#9;&#9;c1.2-0.3,12.8,1.4,14.9,3.8c1.2,1.4-1.1,1.4-3,2.1c2.3,0.8,4.3,1.6,6,2.3c2.6-0.3,7-0.7,7.5-0.6c0.7,0.2,3.8,1.4,3.6,2.8&#10;&#9;&#9;c-0.1,0.4-0.6,0.9-1.4,1.3c3.6,0.3,8-0.2,10.3-2.2c3.6-3.2,11.5-7.9,11.8-7c0.4,0.8-4.9,6.9-5.1,11c-0.2,4.1,4.4,10.5,3.9,12.5&#10;&#9;&#9;c-0.5,2-11.2-6.5-16.1-6.4s-7.4,0.2-7.4,0.2s-0.1,0.1-0.4,0.2c0.2,1.6-1.2,3.3-2.7,3.6c-1.3,0.3-4.9-0.2-7.8-0.7&#10;&#9;&#9;c-2.6,0.4-5.7,0.8-9.3,1c0.8,0.7,1.4,1.1,1.4,1.1s-5.8,2.5-7.8,2.4c-1.5-0.1-5.3-1.9-8-4c-0.3,0-0.6-0.1-0.9-0.1&#10;&#9;&#9;C417.2,251.5,418.6,245,418.6,245z" transform="matrix(1, 0, 0, 1, 0, 0)"/><path fill="#193051" d="M945.6,804.6c-0.3-1.4-10.3-9.9-23.1-11.5c-1.7-0.2-3.4-0.2-5.2-0.2c-1.5-1.2-3.4-2.3-4.3-2.5&#10;&#9;&#9;c-1.2-0.3-12.8,1.4-14.9,3.8c-1.2,1.4,1.1,1.4,3,2.1c-2.3,0.8-4.3,1.6-6,2.3c-2.6-0.3-7-0.7-7.5-0.6c-0.7,0.2-3.8,1.4-3.6,2.8&#10;&#9;&#9;c0.1,0.4,0.6,0.9,1.4,1.3c-3.6,0.3-8-0.2-10.3-2.2c-3.6-3.2-11.5-7.9-11.8-7c-0.4,0.8,4.9,6.9,5.1,11c0.2,4.1-4.4,10.5-3.9,12.5&#10;&#9;&#9;c0.5,2,11.2-6.5,16.1-6.4c4.9,0.2,7.4,0.2,7.4,0.2s0.1,0.1,0.4,0.2c-0.2,1.6,1.2,3.3,2.7,3.6c1.3,0.3,4.9-0.2,7.8-0.7&#10;&#9;&#9;c2.6,0.4,5.7,0.8,9.3,1c-0.8,0.7-1.4,1.1-1.4,1.1s5.8,2.5,7.8,2.4c1.5-0.1,5.3-1.9,8-4c0.3,0,0.6-0.1,0.9-0.1&#10;&#9;&#9;C946.9,811.1,945.6,804.6,945.6,804.6z" transform="matrix(1, 0, 0, 1, 0, 0)"/><path fill="#1A3051" d="M643.6,760.7c2.8-0.5,2.7-7.4,15-11.9c7.4-2.7,23.3-4.5,42.5-3.6c19.2,0.9,14.8,11.4,13.6,14.5&#10;&#9;&#9;c-1.3,3.1-4.2,8-4.2,8s1.2,1.1,5-0.4c3.8-1.4,5.6-7.8,7.6-8.3s5.6,3.3,6.9,11.9c1.3,8.7-5.1,15.6-6.3,15.7&#10;&#9;&#9;c-1.3,0.2-5.6-3.3-7.6-6.9c-6.2,1.3,4.4,3.5-15.1,10.7c-8.5,3.1-11.3-1.1-13.5-2.2c-1.5-0.7-10.5-0.1-18.6-0.2&#10;&#9;&#9;c1.2,2.1,2.4,4.3,3.6,6.1c-0.6,1.9-9.7-0.4-13.5-6.8c-0.2,0-0.3-0.1-0.5-0.1c-7.8-1.8-10.3-9.6-13.6-12.5s-8.5-7.6-8.3-10.1&#10;&#9;&#9;C636.5,762.2,640.6,761.3,643.6,760.7z" transform="matrix(1, 0, 0, 1, 0, 0)"/>
</svg>